<svg xmlns="http://www.w3.org/2000/svg" width="24" height="24" viewBox="0 0 32 32" fill="currentcolor">
<path d="M20.762 11.7641C20.4982 11.7641 20.2472 11.6514 20.0726 11.455L19.154 10.4213C19.0172 10.267 18.8202 10.1792 18.614 10.1792C18.4079 10.1792 18.2108 10.2676 18.0741 10.4213L17.2863 11.3082C17.0284 11.5982 16.6583 11.7647 16.2695 11.7647L3.87428 11.7647C3.52126 12.767 3.29108 13.8258 3.19922 14.9239L14.9006 14.9239C15.1063 14.9239 15.3033 14.8403 15.4454 14.6924L16.5349 13.5597C16.6711 13.4182 16.8591 13.3384 17.0556 13.3384L17.1005 13.3384C17.3071 13.3384 17.5037 13.4267 17.6404 13.581L18.5585 14.6148C18.7331 14.8116 18.9841 14.9239 19.248 14.9239L28.7992 14.9239C28.7074 13.8252 28.4772 12.7665 28.1242 11.7647L20.762 11.7641Z"/>
<path d="M10.2799 21.5672C10.4856 21.5672 10.6826 21.4836 10.8247 21.3357L11.9142 20.203C12.0504 20.0615 12.2384 19.9817 12.4349 19.9817L12.4798 19.9817C12.6864 19.9817 12.883 20.07 13.0197 20.2238L13.9378 21.2575C14.1124 21.4544 14.3634 21.5666 14.6273 21.5666L27.5709 21.5666C28.0558 20.5685 28.411 19.4976 28.6225 18.3755L16.1985 18.3755C15.9346 18.3755 15.6836 18.2627 15.509 18.0664L14.5909 17.0327C14.4542 16.8784 14.2571 16.7906 14.051 16.7906C13.8448 16.7906 13.6478 16.8789 13.511 17.0327L12.7233 17.9196C12.4653 18.2095 12.0952 18.3761 11.7059 18.3761L3.37551 18.3761C3.587 19.4981 3.94269 20.5691 4.42709 21.5672L10.2799 21.5672Z"/>
<path d="M19.4627 8.31192C19.6683 8.31192 19.8654 8.22839 20.0075 8.08049L21.097 6.9478C21.2331 6.80628 21.4211 6.72648 21.6177 6.72648L21.6625 6.72648C21.8692 6.72648 22.0658 6.81479 22.2025 6.96908L23.1205 8.00281C23.2952 8.19966 23.5462 8.31192 23.81 8.31192L26.2715 8.31192C23.9275 5.20807 20.1992 3.2002 15.9993 3.2002C11.7994 3.2002 8.07104 5.20807 5.72702 8.31192L19.4627 8.31192Z"/>
<path d="M11.1527 24.7297C10.8889 24.7297 10.6378 24.6169 10.4632 24.4205L9.54514 23.3868C9.40842 23.2325 9.21135 23.1447 9.0052 23.1447C8.79905 23.1447 8.60198 23.2331 8.46526 23.3868L7.67751 24.2737C7.41955 24.5637 7.04944 24.7302 6.66011 24.7302L6.60777 24.7302C8.95286 27.2334 12.2924 28.8002 16.0004 28.8002C19.7084 28.8002 23.0474 27.2334 25.3931 24.7302L11.1527 24.7297Z"/>
</svg>