<svg xmlns="http://www.w3.org/2000/svg" width="24" height="24" viewBox="0 0 24 24" fill="currentcolor">
<path fill-rule="evenodd" clip-rule="evenodd" d="M11.9978 2.5C11.7458 2.5 11.4965 2.56471 11.2706 2.69198L4.2272 6.723C3.77706 6.97915 3.5 7.45533 3.5 7.97033V16.0297C3.5 16.5447 3.7776 17.0182 4.2272 17.277L11.2728 21.308C11.4965 21.4374 11.7485 21.5 12 21.5C12.2515 21.5 12.5013 21.4353 12.7272 21.308L19.7728 17.277C20.2229 17.0208 20.5 16.5447 20.5 16.0297V7.96979C20.5 7.45479 20.2224 6.98131 19.7728 6.72246L12.725 2.69144C12.5013 2.56471 12.2493 2.5 11.9978 2.5ZM12.492 15.9663L13.42 13.4442C13.4712 13.3056 13.6693 13.3056 13.721 13.4436L15.5253 18.3445L16.2578 17.9254L14.0551 11.9405C14.0295 11.8688 14.0295 11.7928 14.0551 11.7232L14.9831 9.20105C15.0348 9.06246 15.233 9.06246 15.2841 9.20105L18.1068 16.8675L19.1762 16.2556C19.2579 16.2092 19.309 16.1213 19.309 16.0291V7.96979C19.309 7.87703 19.2579 7.78967 19.1762 7.7433L12.1306 3.71227C12.0887 3.68908 12.0446 3.67776 11.9978 3.67776C11.9532 3.67776 11.9069 3.68962 11.8672 3.71227L4.82159 7.7433C4.73995 7.78967 4.68878 7.87757 4.68878 7.96979V16.0318C4.68878 16.1246 4.73995 16.2119 4.82159 16.2583L5.90507 16.878L9.32026 7.60057C9.36707 7.47546 9.48845 7.39242 9.62127 7.39242H11.4072C11.5187 7.39242 11.596 7.50081 11.5563 7.60543L7.7542 17.9356L8.48581 18.354L12.4442 7.60057C12.4911 7.47546 12.6124 7.39242 12.7453 7.39242H14.5311C14.6433 7.39242 14.72 7.50081 14.683 7.60543L10.3351 19.4117L11.865 20.2866C11.9069 20.3098 11.951 20.3212 11.9978 20.3212C12.0446 20.3212 12.0909 20.3098 12.1306 20.2866L13.6764 19.4023L12.492 16.1836C12.4664 16.1119 12.4664 16.0359 12.492 15.9663Z" fill="currentcolor"></path>
</svg>