<svg width="24" height="24" viewBox="0 0 24 24" fill="none" xmlns="http://www.w3.org/2000/svg">
<g clip-path="url(#clip0_6235_69105)">
<path d="M13.7691 13.8244L12.6075 17.0116C12.5787 17.098 12.5787 17.194 12.6075 17.29L14.6043 22.7716L16.9179 21.4372L14.1435 13.8244C14.0763 13.6516 13.8363 13.6516 13.7691 13.8244Z" fill="#5D616C"/>
<path d="M16.0967 8.46749C16.0295 8.29469 15.7895 8.29469 15.7223 8.46749L14.5607 11.6547C14.5319 11.7411 14.5319 11.8371 14.5607 11.9331L17.8343 20.9091L20.1479 19.5747L16.0967 8.47709V8.46749Z" fill="#5D616C"/>
<path d="M11.9884 1.488C12.046 1.488 12.1036 1.5072 12.1516 1.536L20.9644 6.624C21.07 6.6816 21.1276 6.7968 21.1276 6.912V17.088C21.1276 17.2032 21.0604 17.3184 20.9644 17.376L12.1516 22.464C12.1036 22.4928 12.046 22.512 11.9884 22.512C11.9308 22.512 11.8732 22.4928 11.8252 22.464L3.01236 17.376C2.90676 17.3184 2.84916 17.2032 2.84916 17.088V6.9024C2.84916 6.7872 2.91636 6.672 3.01236 6.6144L11.8252 1.5264C11.8732 1.4976 11.9308 1.4784 11.9884 1.4784V1.488ZM11.9884 0C11.6716 0 11.3644 0.0768 11.0764 0.24L2.26356 5.328C1.69716 5.6544 1.35156 6.2496 1.35156 6.9024V17.0784C1.35156 17.7312 1.69716 18.3264 2.26356 18.6528L11.0764 23.7408C11.3548 23.904 11.6716 23.9808 11.9884 23.9808C12.3052 23.9808 12.6124 23.904 12.9004 23.7408L21.7132 18.6528C22.2796 18.3264 22.6252 17.7312 22.6252 17.0784V6.9024C22.6252 6.2496 22.2796 5.6544 21.7132 5.328L12.8908 0.24C12.6124 0.0768 12.2956 0 11.9788 0H11.9884Z" fill="#5D616C"/>
<path d="M11.2375 6.18245H9.00074C8.83754 6.18245 8.68394 6.28805 8.62634 6.44165L3.83594 19.5745L6.14954 20.9089L11.4295 6.44165C11.4775 6.30725 11.3815 6.17285 11.2471 6.17285L11.2375 6.18245Z" fill="#5D616C"/>
<path d="M15.1535 6.18245H12.9167C12.7535 6.18245 12.5999 6.28805 12.5423 6.44165L7.07031 21.4369L9.38391 22.7713L15.3359 6.44165C15.3839 6.30725 15.2879 6.17285 15.1535 6.17285V6.18245Z" fill="#5D616C"/>
</g>
<defs>
<clipPath id="clip0_6235_69105">
<rect width="24" height="24" fill="white"/>
</clipPath>
</defs>
</svg>
