<svg xmlns="http://www.w3.org/2000/svg" width="24" height="24" viewBox="0 0 32 32" fill="currentcolor">
<path fill-rule="evenodd" clip-rule="evenodd" d="M28.7992 15.9997C28.7992 23.069 23.0685 28.7997 15.9992 28.7997C8.92997 28.7997 3.19922 23.069 3.19922 15.9997C3.19922 8.93046 8.92997 3.19971 15.9992 3.19971C23.0685 3.19971 28.7992 8.93046 28.7992 15.9997ZM12.3721 21.0935L9.88794 21.0935C9.36596 21.0935 9.10812 21.0935 8.9509 20.9929C8.78109 20.8828 8.67733 20.7004 8.66475 20.4991C8.65531 20.3137 8.78425 20.0872 9.04209 19.6344L15.1757 8.8231C15.4367 8.364 15.5687 8.13446 15.7354 8.04956C15.9146 7.95837 16.1285 7.95837 16.3077 8.04956C16.4744 8.13446 16.6064 8.364 16.8674 8.8231L18.1283 11.0242L18.1348 11.0355C18.4167 11.528 18.5596 11.7777 18.622 12.0399C18.6912 12.326 18.6912 12.6279 18.622 12.914C18.5591 13.1782 18.4176 13.4297 18.1315 13.9297L14.9097 19.625L14.9013 19.6396C14.6176 20.1362 14.4738 20.3878 14.2745 20.5777C14.0575 20.7853 13.7965 20.9361 13.5104 21.0212C13.2494 21.0935 12.9569 21.0935 12.3721 21.0935ZM18.6453 21.0935L22.2047 21.0935C22.7299 21.0935 22.9941 21.0935 23.1514 20.9898C23.3211 20.8797 23.428 20.6941 23.4375 20.493C23.4466 20.3135 23.3204 20.0959 23.0733 19.6694C23.0648 19.6549 23.0563 19.6401 23.0476 19.6251L21.2646 16.5749L21.2443 16.5406C20.9938 16.1169 20.8673 15.903 20.7049 15.8203C20.5257 15.7291 20.3149 15.7291 20.1358 15.8203C19.9722 15.9052 19.8402 16.1284 19.5792 16.5781L17.8026 19.6282L17.7965 19.6387C17.5364 20.0876 17.4064 20.312 17.4158 20.4961C17.4284 20.6974 17.5322 20.8828 17.7019 20.9929C17.856 21.0935 18.1202 21.0935 18.6453 21.0935Z"/>
</svg>