<svg width="20" height="20" viewBox="0 0 20 20" fill="currentcolor">
<path d="M7.28109 8.88294L9.99989 6.16421L12.7201 8.88434L14.3021 7.30234L9.99989 3L5.69916 7.30094L7.28109 8.88294ZM3 9.99978L4.58205 8.41773L6.16399 9.99969L4.58196 11.5817L3 9.99978ZM7.28109 11.1171L9.99989 13.8358L12.72 11.1157L14.3029 12.6969L14.3021 12.6977L9.99989 17L5.69902 12.6992L5.69678 12.697L7.28109 11.1171ZM13.8361 10.0007L15.4181 8.41861L17 10.0006L15.418 11.5826L13.8361 10.0007Z"/>
<path d="M11.6052 9.99886H11.6059L10.0006 8.39355L8.81425 9.57992H8.81418L8.67789 9.71627L8.39677 9.99746L8.39453 9.99963L8.39677 10.0019L10.0006 11.6059L11.6059 10.0005L11.6067 9.99963L11.6052 9.99886Z"/>
</svg>