<svg width="20" height="20" viewBox="0 0 20 20" fill="currentcolor">
<path fill-rule="evenodd" clip-rule="evenodd" d="M3.80485 0.0965698C3.49382 0.259382 3.29059 0.642153 3.3392 0.973483C3.3514 1.05643 3.41002 1.24589 4.07465 5.16312C4.86054 9.79526 5.30445 12.3337 5.34433 12.4238C5.41575 12.5849 5.62105 12.7816 5.79536 12.8556C5.9785 12.9335 6.30697 12.9264 6.50101 12.8404C6.83523 12.6923 7.01443 12.4122 7.01087 12.0435C7.00828 11.7755 5.10054 0.69275 5.02828 0.519403C4.84042 0.0688563 4.24856 -0.135705 3.80485 0.0965698ZM9.33097 6.37229C8.40382 6.49001 7.336 6.86818 6.60176 7.33885L6.42716 7.45078L6.57414 8.32095C6.65497 8.79953 6.72461 9.19598 6.72891 9.20191C6.73322 9.20784 6.82893 9.14088 6.94162 9.05307C7.62385 8.52159 8.34427 8.18695 9.20042 8.00391C9.69951 7.89721 10.6474 7.89568 11.1647 8.00077C13.2522 8.4248 14.8649 10.0075 15.3107 12.0696C15.8129 14.3925 14.6603 16.7772 12.5152 17.8537C11.0599 18.5839 9.42131 18.5985 7.94675 17.8943C6.33986 17.127 5.22867 15.5957 4.99345 13.8247C4.94846 13.4857 4.96868 12.5631 5.02822 12.238C5.06891 12.016 5.06509 11.9831 4.85216 10.7146C4.73245 10.0015 4.62342 9.38155 4.60983 9.33698C4.58677 9.26126 4.57396 9.27296 4.41505 9.51525C3.918 10.273 3.53477 11.3565 3.41212 12.3506C3.36852 12.7042 3.36852 13.6194 3.41212 13.973C3.59642 15.4669 4.24388 16.8333 5.26813 17.8896C5.8769 18.5174 6.4162 18.9133 7.17884 19.2923C10.5546 20.9699 14.664 19.5614 16.3174 16.1601C16.7978 15.1719 17.0012 14.2876 17.0036 13.178C17.0049 12.52 16.9473 12.0342 16.7988 11.4523C16.5009 10.2849 15.8733 9.1812 15.0254 8.33404C13.9893 7.29873 12.7338 6.65296 11.2701 6.40243C10.8368 6.32827 9.80418 6.31223 9.33097 6.37229ZM10.8339 9.13861C10.5632 9.21021 10.3346 9.39863 10.2 9.66111C10.0882 9.87916 10.0931 10.2634 10.2107 10.4906C10.3807 10.8192 10.6851 11.0015 11.0603 10.9993C11.3087 10.9978 11.4176 10.9652 11.6049 10.836C11.8538 10.6644 11.9888 10.3797 11.9861 10.0322C11.9834 9.67249 11.8021 9.37957 11.4867 9.22509C11.3059 9.1366 10.9964 9.0956 10.8339 9.13861ZM7.82575 10.2519C7.16474 10.488 6.99502 11.3713 7.51979 11.8441C7.88241 12.1708 8.41598 12.1708 8.77861 11.8441C9.21097 11.4545 9.18997 10.7476 8.73585 10.4036C8.64994 10.3386 8.52479 10.2689 8.45771 10.2488C8.30717 10.2036 7.95623 10.2053 7.82575 10.2519ZM12.9534 11.3057C12.7539 11.3762 12.4942 11.6421 12.4245 11.847C12.2654 12.3148 12.44 12.7839 12.86 13.017C13.0141 13.1025 13.064 13.1132 13.3083 13.1132C13.5523 13.1132 13.6026 13.1024 13.7557 13.0175C13.9444 12.9127 14.0499 12.8029 14.1585 12.5983C14.2154 12.4912 14.2294 12.4108 14.2293 12.1894C14.2292 11.953 14.2168 11.8902 14.142 11.7473C14.0359 11.5446 13.8364 11.3674 13.6384 11.2997C13.4527 11.2363 13.1418 11.239 12.9534 11.3057ZM10.1201 12.2462C9.34101 12.5261 9.27775 13.6053 10.0176 13.9935C10.0809 14.0267 10.2265 14.0541 10.3858 14.0628C10.6158 14.0754 10.6714 14.067 10.8225 13.9974C11.273 13.7896 11.482 13.2831 11.3173 12.7986C11.1618 12.3412 10.5901 12.0774 10.1201 12.2462ZM7.34813 13.1633C7.1483 13.2127 6.98415 13.3125 6.84859 13.4668C6.53465 13.8242 6.53756 14.3566 6.85535 14.7108C7.05874 14.9375 7.24553 15.021 7.55391 15.0231C7.76519 15.0245 7.82626 15.0111 7.98967 14.9274C8.69509 14.5659 8.65081 13.5195 7.91699 13.2104C7.77477 13.1505 7.49411 13.1272 7.34813 13.1633ZM12.276 14.3001C11.6075 14.6348 11.6089 15.6283 12.2783 15.9682C12.7512 16.2083 13.3409 16.0111 13.5691 15.5365C13.6825 15.3008 13.6774 14.9562 13.557 14.7104C13.3901 14.3698 13.1016 14.1991 12.6932 14.1991C12.5166 14.1991 12.4412 14.2174 12.276 14.3001ZM9.51427 15.3135C9.21168 15.4265 8.98487 15.6691 8.90492 15.9651C8.85242 16.1594 8.88719 16.4588 8.98455 16.6514C9.26799 17.2119 10.0304 17.326 10.4802 16.8753C10.671 16.6841 10.753 16.4837 10.753 16.2087C10.753 15.6893 10.3865 15.3054 9.86567 15.2791C9.72099 15.2719 9.592 15.2845 9.51427 15.3135Z"/>
</svg>
