<svg xmlns="http://www.w3.org/2000/svg" width="24" height="24" viewBox="0 0 24 24" fill="currentcolo">
<g clip-path="url(#clip0_15523_72776)">
<g clip-path="url(#clip1_15523_72776)">
<path d="M16.4363 11.4989C17.4762 10.9672 18.1379 10.0219 17.9843 8.45032C17.7834 6.29974 16.0172 5.57895 13.6776 5.37811L13.6776 2.40039L11.8579 2.40039L11.8579 5.29539C11.3852 5.29539 10.9007 5.3072 10.4163 5.31901L10.4163 2.40039L8.59654 2.40039L8.59654 5.37811C7.92749 5.39832 7.14827 5.38846 4.94531 5.37811L4.94531 7.31595C6.38203 7.29053 7.13586 7.19821 7.30858 8.11943L7.30858 16.2727C7.1989 17.0036 6.61396 16.8984 5.3116 16.8753L4.94535 19.0377C8.26325 19.0377 8.59658 19.0495 8.59658 19.0495L8.59658 21.5996L10.4163 21.5996L10.4163 19.085C10.9126 19.0968 11.397 19.0968 11.8579 19.0968L11.8579 21.5996L13.6776 21.5996L13.6776 19.0495C16.7262 18.8841 18.7642 18.116 19.036 15.2447C19.2486 12.9405 18.1615 11.9125 16.4363 11.4989ZM10.4517 7.44592C11.4798 7.44592 14.6938 7.12692 14.6938 9.26565C14.6938 11.3099 11.4798 11.0735 10.4517 11.0735L10.4517 7.44592ZM10.4517 16.8871L10.4517 12.8933C11.6806 12.8933 15.4438 12.5506 15.4438 14.8902C15.4438 17.1471 11.6806 16.8871 10.4517 16.8871Z" fill="currentcolor"></path>
</g>
</g>
</svg>