<svg xmlns="http://www.w3.org/2000/svg" width="10" height="14" viewBox="0 0 10 14" fill="currentcolor">
<path d="M1.66536 0.333496H8.33203C8.68565 0.333496 9.02479 0.473972 9.27484 0.72402C9.52489 0.974069 9.66537 1.31321 9.66537 1.66683V12.3335C9.66537 12.6871 9.52489 13.0263 9.27484 13.2763C9.02479 13.5264 8.68565 13.6668 8.33203 13.6668H1.66536C1.31174 13.6668 0.972604 13.5264 0.722555 13.2763C0.472507 13.0263 0.332031 12.6871 0.332031 12.3335V1.66683C0.332031 1.31321 0.472507 0.974069 0.722555 0.72402C0.972604 0.473972 1.31174 0.333496 1.66536 0.333496ZM1.66536 1.66683V4.3335H8.33203V1.66683H1.66536ZM1.66536 5.66683V7.00016H2.9987V5.66683H1.66536ZM4.33203 5.66683V7.00016H5.66536V5.66683H4.33203ZM6.9987 5.66683V7.00016H8.33203V5.66683H6.9987ZM1.66536 8.3335V9.66683H2.9987V8.3335H1.66536ZM4.33203 8.3335V9.66683H5.66536V8.3335H4.33203ZM6.9987 8.3335V9.66683H8.33203V8.3335H6.9987ZM1.66536 11.0002V12.3335H2.9987V11.0002H1.66536ZM4.33203 11.0002V12.3335H5.66536V11.0002H4.33203ZM6.9987 11.0002V12.3335H8.33203V11.0002H6.9987Z"/>
</svg>