<svg xmlns="http://www.w3.org/2000/svg" width="16" height="16" viewBox="0 0 16 16" fill="currentcolor">
<path d="M9.92239 9.23284L8.03483 11.1204L8.66169 11.7473L7.08756 13.3284C6.79502 13.6209 6.45837 13.8461 6.07761 14.004C5.69685 14.1619 5.29751 14.2408 4.8796 14.2408C4.54063 14.2408 4.21327 14.1897 3.89751 14.0876C3.58176 13.9854 3.2869 13.8299 3.01294 13.6209L1.62687 15L1 14.3731L2.3791 12.9871C2.17479 12.7177 2.02156 12.4252 1.9194 12.1095C1.81725 11.7937 1.76385 11.464 1.7592 11.1204C1.7592 10.7071 1.83814 10.3101 1.99602 9.92935C2.1539 9.54859 2.3791 9.20962 2.67164 8.91244L4.25274 7.33831L4.8796 7.96517L6.76716 6.07761L7.401 6.70448L5.50647 8.59901L7.401 10.4935L9.29552 8.59901L9.92239 9.23284ZM4.8796 13.3493C5.17678 13.3493 5.46003 13.2935 5.72935 13.1821C5.99867 13.0706 6.24013 12.9081 6.45373 12.6945L7.401 11.7473L4.25274 8.59901L3.30547 9.54627C3.09652 9.75522 2.93632 9.99436 2.82488 10.2637C2.71343 10.533 2.65539 10.8186 2.65075 11.1204C2.65075 11.4269 2.70879 11.7148 2.82488 11.9841C2.94096 12.2534 3.09884 12.4902 3.29851 12.6945C3.49818 12.8988 3.73499 13.059 4.00896 13.1751C4.28292 13.2912 4.57313 13.3493 4.8796 13.3493ZM13.6209 3.01294C13.8252 3.28226 13.9784 3.57479 14.0806 3.89055C14.1828 4.2063 14.2362 4.53599 14.2408 4.8796C14.2408 5.29287 14.1619 5.68988 14.004 6.07065C13.8461 6.45141 13.6209 6.79038 13.3284 7.08756L11.7473 8.66169L7.33831 4.25274L8.91244 2.67164C9.20498 2.3791 9.54163 2.1539 9.92239 1.99602C10.3032 1.83814 10.7025 1.7592 11.1204 1.7592C11.4594 1.7592 11.7867 1.81028 12.1025 1.91244C12.4182 2.01459 12.7131 2.17015 12.9871 2.3791L14.3731 1L15 1.62687L13.6209 3.01294ZM12.6945 6.45373C12.9035 6.24478 13.0637 6.00564 13.1751 5.73632C13.2866 5.467 13.3446 5.18143 13.3493 4.8796C13.3493 4.57313 13.2912 4.28524 13.1751 4.01592C13.059 3.7466 12.8988 3.51211 12.6945 3.31244C12.4902 3.11277 12.2534 2.95257 11.9841 2.83184C11.7148 2.71111 11.4269 2.65075 11.1204 2.65075C10.8232 2.65075 10.54 2.70647 10.2706 2.81791C10.0013 2.92935 9.75987 3.09187 9.54627 3.30547L8.59901 4.25274L11.7473 7.401L12.6945 6.45373Z"/>
</svg>