<svg xmlns="http://www.w3.org/2000/svg" width="24" height="24" viewBox="0 0 24 24" fill="currentcolor">
<path fill-rule="evenodd" clip-rule="evenodd" d="M12 21C7.02919 21 3 16.9708 3 12C3 7.02919 7.02919 3 12 3C16.9708 3 21 7.02919 21 12C21 16.9708 16.9708 21 12 21ZM8.89613 12.504V16.5H12.5799C13.2606 16.5 13.8495 16.3819 14.3473 16.1473C14.8451 15.9116 15.2512 15.5904 15.5668 15.1826C15.8818 14.7754 16.1164 14.2984 16.2699 13.7522C16.4235 13.206 16.5 12.6216 16.5 12C16.5039 11.4081 16.4263 10.8185 16.2694 10.2478C16.1164 9.70219 15.8818 9.22462 15.5663 8.81738C15.2513 8.40956 14.8451 8.08837 14.3473 7.85269C13.8495 7.61812 13.26 7.5 12.5794 7.5H8.89556V11.2181H8.0625V12.504H8.89613ZM10.452 11.2187V8.78588H11.9826C12.5884 8.78588 13.0839 8.86744 13.4698 9.03169C13.8557 9.19537 14.1583 9.42206 14.3783 9.71231C14.6032 10.0141 14.7563 10.3633 14.826 10.7333C14.9048 11.1242 14.9441 11.5461 14.9441 12C14.9468 12.4251 14.9073 12.8495 14.826 13.2668C14.7473 13.6577 14.5982 13.998 14.3783 14.2877C14.1583 14.5779 13.8551 14.8046 13.4698 14.9683C13.0839 15.1326 12.5884 15.2141 11.9826 15.2141H10.452V12.504H12.8786V11.2187H10.452Z" fill="currentcolor"/>
</svg>