<svg width="20" height="20" viewBox="0 0 20 20" fill="currentcolor">
<path d="M10.151 5.94728C11.5503 5.94728 12.6848 5.28751 12.6848 4.47364C12.6848 3.65977 11.5503 3 10.151 3C8.7516 3 7.61719 3.65977 7.61719 4.47364C7.61719 5.28751 8.7516 5.94728 10.151 5.94728Z"/>
<path d="M10.151 17.0518C11.5503 17.0518 12.6848 16.392 12.6848 15.5781C12.6848 14.7643 11.5503 14.1045 10.151 14.1045C8.7516 14.1045 7.61719 14.7643 7.61719 15.5781C7.61719 16.392 8.7516 17.0518 10.151 17.0518Z"/>
<path d="M6.62174 7.98643C7.32143 6.77458 7.31689 5.46207 6.6116 5.05486C5.90631 4.64765 4.76736 5.29994 4.06767 6.5118C3.36799 7.72365 3.37253 9.03616 4.07782 9.44337C4.7831 9.85058 5.92206 9.19829 6.62174 7.98643Z"/>
<path d="M16.2411 13.5411C16.9408 12.3292 16.9366 11.017 16.2318 10.61C15.527 10.2031 14.3885 10.8556 13.6888 12.0675C12.9891 13.2793 12.9932 14.5916 13.698 14.9985C14.4029 15.4055 15.5414 14.753 16.2411 13.5411Z"/>
<path d="M6.6116 14.9959C7.31689 14.5887 7.32143 13.2762 6.62174 12.0643C5.92206 10.8525 4.7831 10.2002 4.07782 10.6074C3.37253 11.0146 3.36799 12.3271 4.06767 13.539C4.76736 14.7508 5.90631 15.4031 6.6116 14.9959Z"/>
<path d="M16.2318 9.44564C16.9366 9.0387 16.9408 7.72642 16.2411 6.51456C15.5414 5.30271 14.4029 4.65019 13.698 5.05713C12.9932 5.46406 12.9891 6.77635 13.6888 7.9882C14.3885 9.20006 15.527 9.85257 16.2318 9.44564Z"/>
</svg>