<svg xmlns="http://www.w3.org/2000/svg" width="16" height="16" viewBox="0 0 16 16" fill="none">
<path d="M11.9998 14.6673C12.3535 14.6673 12.6926 14.5268 12.9426 14.2768C13.1927 14.0267 13.3332 13.6876 13.3332 13.334L13.3332 10.0007L9.99984 12.6673L9.99984 10.6673L5.33317 10.6673L5.33317 9.33398L9.99984 9.33398L9.99984 7.33398L13.3332 10.0007L13.3332 5.33398L9.33317 1.33398L3.99984 1.33398C3.64622 1.33398 3.30708 1.47446 3.05703 1.72451C2.80698 1.97456 2.6665 2.3137 2.6665 2.66732L2.6665 13.334C2.6665 13.6876 2.80698 14.0267 3.05703 14.2768C3.30708 14.5268 3.64622 14.6673 3.99984 14.6673L11.9998 14.6673ZM8.6665 2.66732L11.9998 6.00065L8.6665 6.00065L8.6665 2.66732Z" fill="#767B89"/>
</svg>