<svg xmlns="http://www.w3.org/2000/svg" width="16" height="16" viewBox="0 0 16 16" fill="none">
<path d="M8.96467 13.9367C9.07506 13.8825 9.1681 13.7986 9.23325 13.6943C9.29841 13.5901 9.33307 13.4696 9.33333 13.3467L9.33333 9.80001C9.33333 9.62535 9.40333 9.45735 9.52867 9.33335L13.6093 5.29735C13.7329 5.17533 13.8311 5.03002 13.8982 4.86981C13.9652 4.7096 13.9998 4.53769 14 4.36401L14 2.66001C13.9997 2.57288 13.9821 2.48667 13.9484 2.40631C13.9147 2.32596 13.8655 2.25305 13.8036 2.19174C13.7416 2.13044 13.6682 2.08195 13.5875 2.04905C13.5069 2.01615 13.4205 1.99949 13.3333 2.00001L2.66667 2.00001C2.298 2.00001 2 2.29468 2 2.66001L2 4.36401C2 4.71401 2.14067 5.05001 2.39067 5.29735L6.47133 9.33335C6.53316 9.39433 6.58226 9.46698 6.6158 9.54709C6.64933 9.6272 6.66662 9.71317 6.66667 9.80001L6.66667 14.0067C6.66667 14.4967 7.188 14.8153 7.63133 14.596L8.96467 13.9367Z" fill="#767B89"/>
</svg>