<svg width="16" height="16" viewBox="0 0 16 16" fill="none" xmlns="http://www.w3.org/2000/svg">
<g id="history">
<g id="Vector">
<path d="M4 11.0002H8V12.0002H4V11.0002ZM4 8.00017H9V9.00017H4V8.00017Z" fill="#CAC4D0"/>
<path d="M8 14.0002H3L3 2.00017L9 2.00017V5.00017C9.00079 5.26514 9.1064 5.51904 9.29377 5.7064C9.48113 5.89377 9.73503 5.99938 10 6.00017H13V7.50017L14 7.50017V5.00017C14.0018 4.93446 13.9893 4.86914 13.9634 4.80872C13.9375 4.7483 13.8988 4.69421 13.85 4.65017L10.35 1.15017C10.306 1.10134 10.2519 1.06265 10.1915 1.03675C10.131 1.01085 10.0657 0.998372 10 1.00017L3 1.00017C2.73503 1.00096 2.48113 1.10657 2.29377 1.29394C2.1064 1.4813 2.00079 1.7352 2 2.00017L2 14.0002C2.00079 14.2651 2.1064 14.519 2.29377 14.7064C2.48113 14.8938 2.73503 14.9994 3 15.0002H8V14.0002ZM10 2.20017L12.8 5.00017H10V2.20017Z" fill="#CAC4D0"/>
<path d="M12 9.00017C11.4067 9.00017 10.8266 9.17612 10.3333 9.50576C9.83994 9.83541 9.45543 10.3039 9.22836 10.8521C9.0013 11.4003 8.94189 12.0035 9.05765 12.5854C9.1734 13.1674 9.45912 13.7019 9.87868 14.1215C10.2982 14.541 10.8328 14.8268 11.4147 14.9425C11.9967 15.0583 12.5999 14.9989 13.1481 14.7718C13.6962 14.5447 14.1648 14.1602 14.4944 13.6669C14.8241 13.1735 15 12.5935 15 12.0002C14.9991 11.2048 14.6827 10.4423 14.1203 9.87987C13.5579 9.31746 12.7954 9.0011 12 9.00017ZM12.7485 13.5442L11.4375 12.2332V10.0002H12.5625V11.7672L13.5445 12.7492L12.7485 13.5442Z" fill="#CAC4D0"/>
</g>
</g>
</svg>
