<svg width="14" height="14" viewBox="0 0 14 14" fill="none" xmlns="http://www.w3.org/2000/svg">
<path d="M7.5 10V6H5.5V7H6.5V10H5V11H9V10H7.5ZM7 3C6.85167 3 6.70666 3.04399 6.58333 3.1264C6.45999 3.20881 6.36386 3.32595 6.30709 3.46299C6.25033 3.60004 6.23548 3.75084 6.26441 3.89632C6.29335 4.04181 6.36478 4.17544 6.46967 4.28033C6.57456 4.38522 6.7082 4.45665 6.85369 4.48559C6.99917 4.51453 7.14997 4.49968 7.28702 4.44291C7.42406 4.38615 7.54119 4.29002 7.62361 4.16668C7.70602 4.04334 7.75 3.89834 7.75 3.75C7.75 3.55109 7.67099 3.36033 7.53033 3.21967C7.38968 3.07902 7.19892 3 7 3Z" fill="#747E93"/>
<path d="M7 14C5.61553 14 4.26216 13.5895 3.11101 12.8203C1.95987 12.0511 1.06266 10.9579 0.532846 9.67879C0.00303298 8.3997 -0.13559 6.99224 0.134506 5.63437C0.404603 4.2765 1.07129 3.02922 2.05026 2.05026C3.02922 1.07129 4.2765 0.404603 5.63437 0.134506C6.99224 -0.13559 8.3997 0.00303298 9.67879 0.532846C10.9579 1.06266 12.0511 1.95987 12.8203 3.11101C13.5895 4.26216 14 5.61553 14 7C14 8.85652 13.2625 10.637 11.9497 11.9497C10.637 13.2625 8.85652 14 7 14ZM7 1C5.81332 1 4.65328 1.3519 3.66658 2.01119C2.67989 2.67047 1.91085 3.60755 1.45673 4.7039C1.0026 5.80026 0.88378 7.00666 1.11529 8.17054C1.3468 9.33443 1.91825 10.4035 2.75736 11.2426C3.59648 12.0818 4.66558 12.6532 5.82946 12.8847C6.99335 13.1162 8.19975 12.9974 9.2961 12.5433C10.3925 12.0892 11.3295 11.3201 11.9888 10.3334C12.6481 9.34673 13 8.18669 13 7C13 5.4087 12.3679 3.88258 11.2426 2.75736C10.1174 1.63214 8.5913 1 7 1Z" fill="#747E93"/>
</svg>
