<svg xmlns="http://www.w3.org/2000/svg" width="20" height="20" viewBox="0 0 20 20" fill="none">
<path d="M17.5 10C17.5 5.85938 14.1406 2.5 10 2.5C5.85938 2.5 2.5 5.85938 2.5 10C2.5 14.1406 5.85938 17.5 10 17.5C14.1406 17.5 17.5 14.1406 17.5 10Z" stroke="#E7E7E7" stroke-width="1.5" stroke-miterlimit="10"/>
<path d="M9.77757 6.48634L10.0018 11.25L10.2256 6.48634C10.227 6.45589 10.2222 6.42547 10.2114 6.39695C10.2006 6.36843 10.1841 6.34241 10.163 6.32047C10.1418 6.29854 10.1164 6.28115 10.0883 6.26937C10.0602 6.25759 10.0299 6.25167 9.99945 6.25196V6.25196C9.96933 6.25225 9.93957 6.2586 9.91196 6.27064C9.88435 6.28267 9.85944 6.30015 9.83873 6.32203C9.81802 6.3439 9.80194 6.36973 9.79143 6.39796C9.78092 6.42619 9.77621 6.45625 9.77757 6.48634V6.48634Z" stroke="#E7E7E7" stroke-width="1.5" stroke-linecap="round" stroke-linejoin="round"/>
<path d="M10 14.3711C9.84548 14.3711 9.69444 14.3253 9.56596 14.2394C9.43749 14.1536 9.33735 14.0316 9.27822 13.8888C9.21909 13.7461 9.20362 13.589 9.23376 13.4374C9.26391 13.2859 9.33831 13.1467 9.44757 13.0374C9.55683 12.9282 9.69604 12.8538 9.84759 12.8236C9.99913 12.7935 10.1562 12.8089 10.299 12.8681C10.4417 12.9272 10.5637 13.0273 10.6496 13.1558C10.7354 13.2843 10.7813 13.4353 10.7813 13.5898C10.7813 13.797 10.6989 13.9958 10.5524 14.1423C10.4059 14.2888 10.2072 14.3711 10 14.3711Z" fill="#E7E7E7"/>
</svg>