<svg xmlns="http://www.w3.org/2000/svg" width="20" height="20" viewBox="0 0 20 20" fill="currentcolor">
<path d="M10.0013 1.6665C5.4063 1.6665 1.66797 5.40484 1.66797 9.99984C1.66797 14.5948 5.4063 18.3332 10.0013 18.3332C14.5963 18.3332 18.3346 14.5948 18.3346 9.99984C18.3346 5.40484 14.5963 1.6665 10.0013 1.6665ZM10.0013 16.6665C6.32547 16.6665 3.33464 13.6757 3.33464 9.99984C3.33464 6.324 6.32547 3.33317 10.0013 3.33317C13.6771 3.33317 16.668 6.324 16.668 9.99984C16.668 13.6757 13.6771 16.6665 10.0013 16.6665Z"/>
<path d="M9.16797 9.16683H10.8346V14.1668H9.16797V9.16683ZM9.16797 5.8335H10.8346V7.50016H9.16797V5.8335Z"/>
</svg>