<svg
		width="24"
		height="24"
		viewBox="0 0 24 24"
		fill="none"
		xmlns="http://www.w3.org/2000/svg">
		<g clipPath="url(#clip0_3602_77514)">
			<path
				d="M12.002 24C18.6294 24 24.002 18.6274 24.002 12C24.002 5.37258 18.6294 -1.97782e-08 12.002 -1.27414e-08C5.37454 -5.70451e-09 0.00195313 5.37258 0.00195314 12C0.00195314 18.6274 5.37454 24 12.002 24Z"
				fill="#30343C"
			/>
			<path
				d="M5.15779 16.1106V16.2761C5.15779 16.2761 11.0495 13.8882 12.1963 14.5049L11.5046 14.7136C11.5651 14.7136 12.6862 14.7888 12.6862 14.7888C12.7125 15.0261 12.7898 15.2544 12.9126 15.4572C13.0354 15.6601 13.2006 15.8326 13.3963 15.9621C14.0715 16.419 14.0844 16.6672 14.0844 16.6672C14.0844 16.6672 13.7339 16.8139 13.7339 17C14.0598 16.9044 14.3968 16.8544 14.7358 16.8515C15.0415 16.8626 15.3447 16.9125 15.6385 17C15.6385 17 15.6037 16.812 15.1321 16.6672C14.6605 16.5224 14.2055 16.011 13.9761 15.7271C13.8386 15.5456 13.7494 15.3306 13.7172 15.1032C13.685 14.8758 13.711 14.6437 13.7927 14.4297C13.956 14.001 14.5266 13.7622 15.6844 13.1455C17.0587 12.4179 17.3725 11.8726 17.5651 11.4533C17.7578 11.034 18.0477 10.1935 18.2073 9.79869C18.3401 9.42963 18.5684 9.10461 18.8679 8.85857C19.0716 8.69875 20 8.33963 20 8.33963C20 8.33963 19.2917 7.72103 19.0605 7.53489C18.7716 7.25445 18.4061 7.07081 18.0128 7.00842C17.5211 6.94261 17.022 7.27729 16.6844 7.50104C16.3468 7.72479 15.6936 8.37911 15.4293 8.56714C15.1651 8.75516 14.4881 8.94318 13.411 9.61819C12.3339 10.2932 8.05871 13.0891 8.05871 13.0891L9.15963 13.1004L4.21835 15.7271H4.71192L4 16.2912C4.3943 16.3837 4.80818 16.3191 5.15779 16.1106Z"
				fill="#767B89"
			/>
		</g>
		<defs>
			<clipPath id="clip0_3602_77514">
				<rect
					width="24"
					height="24"
					fill="white"
					transform="translate(0.00195312)"
				/>
			</clipPath>
		</defs>
	</svg>