<svg xmlns="http://www.w3.org/2000/svg" width="24" height="24" viewBox="0 0 24 24" fill="currentcolor">
<path d="M16.6467 8.82512C16.3102 8.61872 15.8733 8.61872 15.503 8.82512L12.8774 10.413L11.0945 11.4478L8.46883 13.0347C8.13231 13.2421 7.69546 13.2421 7.32519 13.0347L5.23855 11.7925C4.90202 11.5861 4.66673 11.2069 4.66673 10.7922V8.34224C4.66673 7.92848 4.86828 7.54928 5.23855 7.34192L7.29054 6.13424C7.62797 5.92688 8.06573 5.92688 8.436 6.13424L10.488 7.34192C10.8254 7.54928 11.0607 7.92848 11.0607 8.34224V9.93008L12.8437 8.85968V7.2728C12.8456 7.06669 12.7932 6.86405 12.6923 6.68744C12.5913 6.51083 12.4458 6.36718 12.2719 6.27248L8.46883 3.99536C8.13231 3.788 7.69546 3.788 7.32519 3.99536L3.45469 6.27248C3.28076 6.36718 3.13522 6.51083 3.03426 6.68744C2.93331 6.86405 2.8809 7.06669 2.88287 7.2728V11.8616C2.88287 12.2763 3.08442 12.6555 3.45469 12.8629L7.32519 15.14C7.66172 15.3464 8.09947 15.3464 8.46883 15.14L11.0945 13.5867L12.8774 12.5173L15.503 10.965C15.8396 10.7576 16.2764 10.7576 16.6467 10.965L18.6996 12.1726C19.037 12.379 19.2714 12.7582 19.2714 13.173V15.6229C19.2714 16.0366 19.0708 16.4158 18.6996 16.6232L16.6476 17.8654C16.3102 18.0728 15.8724 18.0728 15.503 17.8654L13.4501 16.6578C13.1127 16.4504 12.8774 16.0712 12.8774 15.6574V14.0696L11.0945 15.14V16.7269C11.0945 17.1406 11.296 17.5208 11.6663 17.7272L15.5368 20.0043C15.8733 20.2117 16.3102 20.2117 16.6804 20.0043L20.5509 17.7272C20.8875 17.5208 21.1228 17.1416 21.1228 16.7269V12.1381C21.1247 11.932 21.0723 11.7293 20.9714 11.5527C20.8704 11.3761 20.7249 11.2325 20.5509 11.1378L16.6476 8.82512H16.6467Z" fill="currentcolor"/>
</svg>