<svg xmlns="http://www.w3.org/2000/svg" width="14" height="14" viewBox="0 0 14 14" fill="none">
<path d="M13.0082 9.56738L12.1999 12.1952L10.6133 11.7779L13.0082 9.56738Z" fill="#E4761B" stroke="#E4761B" stroke-width="0.0991553"/>
<path d="M10.6133 11.7779L12.1436 9.76168L13.0082 9.56738L10.6133 11.7779Z" fill="#E4761B" stroke="#E4761B" stroke-width="0.0991553"/>
<path d="M11.8164 7.58678L13.0056 9.56799L12.141 9.76229L11.8164 7.58678ZM11.8164 7.58678L12.5816 7.07715L13.0056 9.56799L11.8164 7.58678Z" fill="#F6851B" stroke="#F6851B" stroke-width="0.0991553"/>
<path d="M10.8438 6.09001L13.0432 5.22363L12.9339 5.69823L10.8438 6.09001ZM12.8643 6.26839L10.8438 6.09001L12.9339 5.69823L12.8643 6.26839Z" fill="#763D16" stroke="#763D16" stroke-width="0.0991553"/>
<path d="M12.8643 6.26838L12.5828 7.07743L10.8438 6.09001L12.8643 6.26838ZM13.3049 5.4243L12.9339 5.69823L13.0432 5.22363L13.3049 5.4243ZM12.8643 6.26838L12.9339 5.69823L13.2287 5.93394L12.8643 6.26838Z" fill="#763D16" stroke="#763D16" stroke-width="0.0991553"/>
<path d="M8.90625 11.1387L9.45611 11.3075L10.6121 11.7789L8.90625 11.1387Z" fill="#E2761B" stroke="#E2761B" stroke-width="0.0991553"/>
<path d="M12.583 7.07726L12.8646 6.26822L13.1064 6.44659L12.583 7.07726ZM12.583 7.07726L10.3008 6.35422L10.844 6.08984L12.583 7.07726Z" fill="#763D16" stroke="#763D16" stroke-width="0.0991553"/>
<path d="M11.3873 3.6084L10.844 6.08968L10.3008 6.35406L11.3873 3.6084Z" fill="#763D16" stroke="#763D16" stroke-width="0.0991553"/>
<path d="M13.0432 5.2233L10.8438 6.08968L11.387 3.6084L13.0432 5.2233Z" fill="#763D16" stroke="#763D16" stroke-width="0.0991553"/>
<path d="M11.3867 3.60833L13.6822 3.35352L13.0429 5.22324L11.3867 3.60833Z" fill="#763D16" stroke="#763D16" stroke-width="0.0991553"/>
<path d="M12.583 7.07656L11.8179 7.5862L10.3008 6.35352L12.583 7.07656Z" fill="#F6851B" stroke="#F6851B" stroke-width="0.0991553"/>
<path d="M13.5828 1.56641L13.6822 3.35332L11.3867 3.60813L13.5828 1.56641Z" fill="#763D16" stroke="#763D16" stroke-width="0.0991553"/>
<path d="M13.5809 1.56641L8.99322 4.77393L8.93359 2.59842L13.5809 1.56641Z" fill="#E2761B" stroke="#E2761B" stroke-width="0.0991553"/>
<path d="M5.52344 2.33691L8.93523 2.5981L8.99485 4.77361L5.52344 2.33691Z" fill="#F6851B" stroke="#F6851B" stroke-width="0.0991553"/>
<path d="M10.3012 6.35406L8.99609 4.77419L11.3877 3.6084L10.3012 6.35406Z" fill="#763D16" stroke="#763D16" stroke-width="0.0991553"/>
<path d="M10.3003 6.35352L11.8174 7.5862L9.6875 7.81235L10.3003 6.35352Z" fill="#E4761B" stroke="#E4761B" stroke-width="0.0991553"/>
<path d="M9.68839 7.81312L8.99609 4.77441L10.3012 6.35428L9.68839 7.81312Z" fill="#E4761B" stroke="#E4761B" stroke-width="0.0991553"/>
<path d="M11.3877 3.60813L8.99609 4.77393L13.5838 1.56641L11.3877 3.60813Z" fill="#763D16" stroke="#763D16" stroke-width="0.0991553"/>
<path d="M5.55102 11.7273L6.63418 12.8135L5.16016 11.5234L5.55102 11.7273Z" fill="#C0AD9E" stroke="#C0AD9E" stroke-width="0.0991553"/>
<path d="M10.6133 11.778L11.1267 9.90187L12.1436 9.76172L10.6133 11.778Z" fill="#CD6116" stroke="#CD6116" stroke-width="0.0991553"/>
<path d="M1.16016 6.50067L3.03498 4.60547L1.40196 6.27452L1.16016 6.50067Z" fill="#E2761B" stroke="#E2761B" stroke-width="0.0991553"/>
<path d="M12.1417 9.76167L11.1247 9.90182L11.817 7.58616L12.1417 9.76167ZM8.99485 4.77361L7.16971 4.71627L5.52344 2.33691L8.99485 4.77361Z" fill="#F6851B" stroke="#F6851B" stroke-width="0.0991553"/>
<path d="M11.8189 7.58691L11.1266 9.90257L11.0703 8.77182L11.8189 7.58691Z" fill="#E4751F" stroke="#E4751F" stroke-width="0.0991553"/>
<path d="M9.6875 7.81307L11.8174 7.58691L11.0688 8.77182L9.6875 7.81307Z" fill="#CD6116" stroke="#CD6116" stroke-width="0.0991553"/>
<path d="M7.16797 4.7168L8.99311 4.77413L9.68541 7.81283L7.16797 4.7168Z" fill="#F6851B" stroke="#F6851B" stroke-width="0.0991553"/>
<path d="M7.17055 4.71685L2.24498 0.333984L5.52428 2.33749L7.17055 4.71685ZM5.52097 12.3932L1.24132 13.6673L0.386719 10.5299L5.52097 12.3932Z" fill="#E4761B" stroke="#E4761B" stroke-width="0.0991553"/>
<path d="M1.79688 7.28341L3.41333 6.06348L4.76811 6.36607L1.79688 7.28341Z" fill="#763D16" stroke="#763D16" stroke-width="0.0991553"/>
<path d="M4.76884 6.36661L3.41406 6.06401L4.13948 3.18457L4.76884 6.36661Z" fill="#763D16" stroke="#763D16" stroke-width="0.0991553"/>
<path d="M1.40234 6.2737L3.41298 6.06348L1.79652 7.28341L1.40234 6.2737Z" fill="#763D16" stroke="#763D16" stroke-width="0.0991553"/>
<path d="M11.0688 8.77223L10.234 8.36771L9.6875 7.81348L11.0688 8.77223Z" fill="#CD6116" stroke="#CD6116" stroke-width="0.0991553"/>
<path d="M1.40025 6.27382L1.25781 5.55078L3.41088 6.0636L1.40025 6.27382Z" fill="#763D16" stroke="#763D16" stroke-width="0.0991553"/>
<path d="M10.0625 9.27816L10.2347 8.36719L11.0695 8.77171L10.0625 9.27816Z" fill="#233447" stroke="#233447" stroke-width="0.0991553"/>
<path d="M11.1258 9.90224L10.0625 9.27793L11.0695 8.77148L11.1258 9.90224Z" fill="#F6851B" stroke="#F6851B" stroke-width="0.0991553"/>
<path d="M3.41457 6.06401L1.2615 5.55119L1.08594 4.94281L3.41457 6.06401ZM4.13999 3.18457L3.41457 6.06401L1.08594 4.94281L4.13999 3.18457ZM4.13999 3.18457L7.17085 4.71666L4.76935 6.36661L4.13999 3.18457Z" fill="#763D16" stroke="#763D16" stroke-width="0.0991553"/>
<path d="M4.76953 6.36674L7.17103 4.7168L8.24095 7.86061L4.76953 6.36674ZM8.24095 7.86061L4.9219 7.79372L4.76953 6.36674L8.24095 7.86061Z" fill="#E4761B" stroke="#E4761B" stroke-width="0.0991553"/>
<path d="M1.79688 7.28408L4.76811 6.36674L4.92048 7.79372L1.79688 7.28408ZM9.68705 7.81283L8.23952 7.86061L7.16961 4.7168L9.68705 7.81283Z" fill="#F6851B" stroke="#F6851B" stroke-width="0.0991553"/>
<path d="M10.234 8.36771L10.0618 9.27868L9.6875 7.81348L10.234 8.36771Z" fill="#CD6116" stroke="#CD6116" stroke-width="0.0991553"/>
<path d="M2.24609 0.333984L7.17166 4.71685L4.1408 3.18476L2.24609 0.333984Z" fill="#763D16" stroke="#763D16" stroke-width="0.0991553"/>
<path d="M0.386719 10.5299L4.54049 10.3643L5.52097 12.3932L0.386719 10.5299Z" fill="#E4761B" stroke="#E4761B" stroke-width="0.0991553"/>
<path d="M5.51954 12.3931L4.53906 10.3641L6.57951 10.2686L5.51954 12.3931Z" fill="#CD6116" stroke="#CD6116" stroke-width="0.0991553"/>
<path d="M10.0623 9.27813L11.1256 9.90243L11.7119 11.2307L10.0623 9.27813ZM4.92142 7.79381L0.386719 10.5299L1.79781 7.28418L4.92142 7.79381ZM4.54049 10.3643L0.386719 10.5299L4.92142 7.79381L4.54049 10.3643ZM9.68799 7.81293L9.95961 8.76212L8.64789 8.83538L9.68799 7.81293ZM8.64789 8.83538L8.24046 7.8607L9.68799 7.81293L8.64789 8.83538Z" fill="#F6851B" stroke="#F6851B" stroke-width="0.0991553"/>
<path d="M6.63582 12.813L5.51953 12.3926L9.40169 13.0201L6.63582 12.813Z" fill="#C0AD9E" stroke="#C0AD9E" stroke-width="0.0991553"/>
<path d="M1.79614 7.28413L1.16016 6.50056L1.40196 6.27441L1.79614 7.28413Z" fill="#763D16" stroke="#763D16" stroke-width="0.0991553"/>
<path d="M9.84223 12.555L9.40168 13.0201L5.51953 12.3926L9.84223 12.555Z" fill="#D7C1B3" stroke="#D7C1B3" stroke-width="0.0991553"/>
<path d="M10.0509 11.4152L5.51953 12.3931L6.5795 10.2686L10.0509 11.4152Z" fill="#E4761B" stroke="#E4761B" stroke-width="0.0991553"/>
<path d="M5.51953 12.3929L10.0509 11.415L9.84224 12.5553L5.51953 12.3929Z" fill="#D7C1B3" stroke="#D7C1B3" stroke-width="0.0991553"/>
<path d="M1.08656 4.9426L0.9375 2.49316L4.14061 3.18436L1.08656 4.9426ZM1.40455 6.27402L0.963999 5.84402L1.26212 5.55098L1.40455 6.27402Z" fill="#763D16" stroke="#763D16" stroke-width="0.0991553"/>
<path d="M7.49609 8.492L8.23808 7.86133L8.13208 9.40297L7.49609 8.492Z" fill="#CD6116" stroke="#CD6116" stroke-width="0.0991553"/>
<path d="M8.2398 7.86133L7.49782 8.492L6.41797 9.0303L8.2398 7.86133Z" fill="#CD6116" stroke="#CD6116" stroke-width="0.0991553"/>
<path d="M11.7121 11.2299L11.51 11.0865L10.0625 9.27734L11.7121 11.2299Z" fill="#F6851B" stroke="#F6851B" stroke-width="0.0991553"/>
<path d="M6.41909 9.02981L4.92188 7.79395L8.24092 7.86084L6.41909 9.02981Z" fill="#CD6116" stroke="#CD6116" stroke-width="0.0991553"/>
<path d="M8.13281 9.40297L8.23881 7.86133L8.64624 8.836L8.13281 9.40297Z" fill="#E4751F" stroke="#E4751F" stroke-width="0.0991553"/>
<path d="M0.816406 5.18544L1.08471 4.94336L1.26027 5.55174L0.816406 5.18544Z" fill="#763D16" stroke="#763D16" stroke-width="0.0991553"/>
<path d="M8.1338 9.40218L6.41797 9.02951L7.49782 8.49121L8.1338 9.40218Z" fill="#233447" stroke="#233447" stroke-width="0.0991553"/>
<path d="M4.14061 3.18476L0.9375 2.49356L2.2459 0.333984L4.14061 3.18476Z" fill="#763D16" stroke="#763D16" stroke-width="0.0991553"/>
<path d="M9.40259 13.0205L9.58477 13.4983L6.63672 12.8135L9.40259 13.0205Z" fill="#C0AD9E" stroke="#C0AD9E" stroke-width="0.0991553"/>
<path d="M6.58028 10.2683L6.41797 9.0293L8.1338 9.40197L6.58028 10.2683Z" fill="#F6851B" stroke="#F6851B" stroke-width="0.0991553"/>
<path d="M4.92188 7.79395L6.41909 9.02981L6.5814 10.2689L4.92188 7.79395Z" fill="#E4751F" stroke="#E4751F" stroke-width="0.0991553"/>
<path d="M8.64646 8.83551L9.95818 8.76225L11.5084 11.0875L8.64646 8.83551ZM4.91999 7.79395L6.57951 10.2689L4.53906 10.3644L4.91999 7.79395Z" fill="#F6851B" stroke="#F6851B" stroke-width="0.0991553"/>
<path d="M8.64624 8.83496L10.2759 11.2207L8.13281 9.40193L8.64624 8.83496Z" fill="#E4751F" stroke="#E4751F" stroke-width="0.0991553"/>
<path d="M8.13281 9.40234L10.2759 11.2211L10.0507 11.4154L8.13281 9.40234Z" fill="#F6851B" stroke="#F6851B" stroke-width="0.0991553"/>
<path d="M10.0495 11.415L6.57812 10.2683L8.13165 9.40193L10.0495 11.415ZM11.507 11.0869L10.2748 11.2207L8.64507 8.83496L11.507 11.0869Z" fill="#F6851B" stroke="#F6851B" stroke-width="0.0991553"/>
<path d="M11.8337 12.208L11.3037 13.2305L9.58453 13.498L11.8337 12.208ZM9.58453 13.498L9.40234 13.0202L9.84289 12.5552L9.58453 13.498Z" fill="#C0AD9E" stroke="#C0AD9E" stroke-width="0.0991553"/>
<path d="M9.84431 12.5552L10.1689 12.431L9.58594 13.498L9.84431 12.5552ZM9.58594 13.498L10.1689 12.431L11.8351 12.208L9.58594 13.498Z" fill="#C0AD9E" stroke="#C0AD9E" stroke-width="0.0991553"/>
<path d="M11.5072 11.0879L11.9146 11.3268L10.6758 11.4701L11.5072 11.0879Z" fill="#161616" stroke="#161616" stroke-width="0.0991553"/>
<path d="M10.6781 11.4701L10.2773 11.2217L11.5096 11.0879L10.6781 11.4701ZM10.5357 11.658L12.0429 11.4829L11.8342 12.2091L10.5357 11.658Z" fill="#161616" stroke="#161616" stroke-width="0.0991553"/>
<path d="M11.8345 12.2091L10.1684 12.4321L10.536 11.6581L11.8345 12.2091ZM10.1684 12.4321L9.84375 12.5563L10.0524 11.416L10.1684 12.4321ZM10.0524 11.416L10.2777 11.2217L10.6785 11.4701L10.0524 11.416ZM11.9173 11.3268L12.0432 11.4829L10.536 11.6581L11.9173 11.3268Z" fill="#161616" stroke="#161616" stroke-width="0.0991553"/>
<path d="M10.5344 11.6574L10.6768 11.4695L11.9157 11.3262L10.5344 11.6574ZM10.0508 11.4154L10.5344 11.6574L10.1667 12.4314L10.0508 11.4154Z" fill="#161616" stroke="#161616" stroke-width="0.0991553"/>
<path d="M10.6768 11.4692L10.5344 11.6571L10.0508 11.415L10.6768 11.4692Z" fill="#161616" stroke="#161616" stroke-width="0.0991553"/>
</svg>