<svg width="30" height="30" viewBox="0 0 30 30" fill="none" xmlns="http://www.w3.org/2000/svg">
<g clip-path="url(#clip0_5948_37708)">
<path d="M15 30C23.2843 30 30 23.2843 30 15C30 6.71573 23.2843 -2.47228e-08 15 -1.59267e-08C6.71573 -7.13063e-09 7.13062e-09 6.71573 1.59267e-08 15C2.47228e-08 23.2843 6.71573 30 15 30Z" fill="#212327"/>
<path d="M21.0043 17.5664L20.196 20.1942L18.6094 19.7769L21.0043 17.5664Z" fill="#E4761B" stroke="#E4761B" stroke-width="0.0951928"/>
<path d="M18.6094 19.7769L20.1397 17.7607L21.0043 17.5664L18.6094 19.7769Z" fill="#E4761B" stroke="#E4761B" stroke-width="0.0951928"/>
<path d="M19.8125 15.5858L21.0017 17.567L20.1371 17.7613L19.8125 15.5858ZM19.8125 15.5858L20.5777 15.0762L21.0017 17.567L19.8125 15.5858Z" fill="#F6851B" stroke="#F6851B" stroke-width="0.0951928"/>
<path d="M18.8438 14.089L21.0432 13.2227L20.9339 13.6973L18.8438 14.089ZM20.8643 14.2674L18.8438 14.089L20.9339 13.6973L20.8643 14.2674Z" fill="#763D16" stroke="#763D16" stroke-width="0.0951928"/>
<path d="M20.8643 14.2674L20.5828 15.0765L18.8438 14.089L20.8643 14.2674ZM21.3049 13.4233L20.9339 13.6973L21.0432 13.2227L21.3049 13.4233ZM20.8643 14.2674L20.9339 13.6973L21.2287 13.933L20.8643 14.2674Z" fill="#763D16" stroke="#763D16" stroke-width="0.0951928"/>
<path d="M16.9062 19.1367L17.4561 19.3055L18.6121 19.7769L16.9062 19.1367Z" fill="#E2761B" stroke="#E2761B" stroke-width="0.0951928"/>
<path d="M20.5791 15.0763L20.8607 14.2672L21.1025 14.4456L20.5791 15.0763ZM20.5791 15.0763L18.2969 14.3532L18.8401 14.0889L20.5791 15.0763Z" fill="#763D16" stroke="#763D16" stroke-width="0.0951928"/>
<path d="M19.3833 11.6074L18.8401 14.0887L18.2969 14.3531L19.3833 11.6074Z" fill="#763D16" stroke="#763D16" stroke-width="0.0951928"/>
<path d="M21.0432 13.2223L18.8438 14.0887L19.387 11.6074L21.0432 13.2223Z" fill="#763D16" stroke="#763D16" stroke-width="0.0951928"/>
<path d="M19.3828 11.6074L21.6783 11.3525L21.039 13.2223L19.3828 11.6074Z" fill="#763D16" stroke="#763D16" stroke-width="0.0951928"/>
<path d="M20.5791 15.0756L19.814 15.5852L18.2969 14.3525L20.5791 15.0756Z" fill="#F6851B" stroke="#F6851B" stroke-width="0.0951928"/>
<path d="M21.5789 9.56543L21.6783 11.3523L19.3828 11.6072L21.5789 9.56543Z" fill="#763D16" stroke="#763D16" stroke-width="0.0951928"/>
<path d="M21.5848 9.56543L16.9971 12.7729L16.9375 10.5974L21.5848 9.56543Z" fill="#E2761B" stroke="#E2761B" stroke-width="0.0951928"/>
<path d="M13.5234 10.3359L16.9352 10.5971L16.9949 12.7726L13.5234 10.3359Z" fill="#F6851B" stroke="#F6851B" stroke-width="0.0951928"/>
<path d="M18.2973 14.3531L16.9922 12.7732L19.3838 11.6074L18.2973 14.3531Z" fill="#763D16" stroke="#763D16" stroke-width="0.0951928"/>
<path d="M18.3003 14.3525L19.8174 15.5852L17.6875 15.8114L18.3003 14.3525Z" fill="#E4761B" stroke="#E4761B" stroke-width="0.0951928"/>
<path d="M17.6845 15.8121L16.9922 12.7734L18.2973 14.3533L17.6845 15.8121Z" fill="#E4761B" stroke="#E4761B" stroke-width="0.0951928"/>
<path d="M19.3838 11.6072L16.9922 12.7729L21.5799 9.56543L19.3838 11.6072Z" fill="#763D16" stroke="#763D16" stroke-width="0.0951928"/>
<path d="M13.5549 19.7263L14.6381 20.8125L13.1641 19.5225L13.5549 19.7263Z" fill="#C0AD9E" stroke="#C0AD9E" stroke-width="0.0951928"/>
<path d="M18.6094 19.777L19.1228 17.9009L20.1397 17.7607L18.6094 19.777Z" fill="#CD6116" stroke="#CD6116" stroke-width="0.0951928"/>
<path d="M9.15625 14.4997L11.0311 12.6045L9.39806 14.2735L9.15625 14.4997Z" fill="#E2761B" stroke="#E2761B" stroke-width="0.0951928"/>
<path d="M20.1417 17.7607L19.1247 17.9008L19.817 15.5852L20.1417 17.7607ZM16.9949 12.7726L15.1697 12.7153L13.5234 10.3359L16.9949 12.7726Z" fill="#F6851B" stroke="#F6851B" stroke-width="0.0951928"/>
<path d="M19.8189 15.5859L19.1266 17.9016L19.0703 16.7708L19.8189 15.5859Z" fill="#E4751F" stroke="#E4751F" stroke-width="0.0951928"/>
<path d="M17.6875 15.8121L19.8174 15.5859L19.0688 16.7708L17.6875 15.8121Z" fill="#CD6116" stroke="#CD6116" stroke-width="0.0951928"/>
<path d="M15.1719 12.7158L16.997 12.7732L17.6893 15.8119L15.1719 12.7158Z" fill="#F6851B" stroke="#F6851B" stroke-width="0.0951928"/>
<path d="M15.1666 12.7159L10.2411 8.33301L13.5204 10.3365L15.1666 12.7159ZM13.5171 20.3923L9.23742 21.6663L8.38281 18.5289L13.5171 20.3923Z" fill="#E4761B" stroke="#E4761B" stroke-width="0.0951928"/>
<path d="M9.79688 15.2834L11.4133 14.0635L12.7681 14.3661L9.79688 15.2834Z" fill="#763D16" stroke="#763D16" stroke-width="0.0951928"/>
<path d="M12.7688 14.3656L11.4141 14.063L12.1395 11.1836L12.7688 14.3656Z" fill="#763D16" stroke="#763D16" stroke-width="0.0951928"/>
<path d="M9.39844 14.2737L11.4091 14.0635L9.79262 15.2834L9.39844 14.2737Z" fill="#763D16" stroke="#763D16" stroke-width="0.0951928"/>
<path d="M19.0688 16.7703L18.234 16.3658L17.6875 15.8115L19.0688 16.7703Z" fill="#CD6116" stroke="#CD6116" stroke-width="0.0951928"/>
<path d="M9.40025 14.2728L9.25781 13.5498L11.4109 14.0626L9.40025 14.2728Z" fill="#763D16" stroke="#763D16" stroke-width="0.0951928"/>
<path d="M18.0625 17.2772L18.2347 16.3662L19.0695 16.7707L18.0625 17.2772Z" fill="#233447" stroke="#233447" stroke-width="0.0951928"/>
<path d="M19.1258 17.9013L18.0625 17.277L19.0695 16.7705L19.1258 17.9013Z" fill="#F6851B" stroke="#F6851B" stroke-width="0.0951928"/>
<path d="M11.4146 14.063L9.2615 13.5502L9.08594 12.9418L11.4146 14.063ZM12.14 11.1836L11.4146 14.063L9.08594 12.9418L12.14 11.1836ZM12.14 11.1836L15.1708 12.7157L12.7693 14.3656L12.14 11.1836Z" fill="#763D16" stroke="#763D16" stroke-width="0.0951928"/>
<path d="M12.7656 14.3658L15.1671 12.7158L16.237 15.8596L12.7656 14.3658ZM16.237 15.8596L12.918 15.7927L12.7656 14.3658L16.237 15.8596Z" fill="#E4761B" stroke="#E4761B" stroke-width="0.0951928"/>
<path d="M9.79688 15.2831L12.7681 14.3658L12.9205 15.7927L9.79688 15.2831ZM17.6871 15.8119L16.2395 15.8596L15.1696 12.7158L17.6871 15.8119Z" fill="#F6851B" stroke="#F6851B" stroke-width="0.0951928"/>
<path d="M18.234 16.3658L18.0618 17.2767L17.6875 15.8115L18.234 16.3658Z" fill="#CD6116" stroke="#CD6116" stroke-width="0.0951928"/>
<path d="M10.2422 8.33301L15.1678 12.7159L12.1369 11.1838L10.2422 8.33301Z" fill="#763D16" stroke="#763D16" stroke-width="0.0951928"/>
<path d="M8.38281 18.5289L12.5366 18.3633L13.5171 20.3923L8.38281 18.5289Z" fill="#E4761B" stroke="#E4761B" stroke-width="0.0951928"/>
<path d="M13.5195 20.3921L12.5391 18.3631L14.5795 18.2676L13.5195 20.3921Z" fill="#CD6116" stroke="#CD6116" stroke-width="0.0951928"/>
<path d="M18.0584 17.2772L19.1217 17.9015L19.708 19.2297L18.0584 17.2772ZM12.9175 15.7928L8.38281 18.5289L9.7939 15.2832L12.9175 15.7928ZM12.5366 18.3633L8.38281 18.5289L12.9175 15.7928L12.5366 18.3633ZM17.6841 15.8119L17.9557 16.7611L16.644 16.8344L17.6841 15.8119ZM16.644 16.8344L16.2366 15.8597L17.6841 15.8119L16.644 16.8344Z" fill="#F6851B" stroke="#F6851B" stroke-width="0.0951928"/>
<path d="M14.6319 20.813L13.5156 20.3926L17.3978 21.0201L14.6319 20.813Z" fill="#C0AD9E" stroke="#C0AD9E" stroke-width="0.0951928"/>
<path d="M9.79223 15.2832L9.15625 14.4996L9.39806 14.2734L9.79223 15.2832Z" fill="#763D16" stroke="#763D16" stroke-width="0.0951928"/>
<path d="M17.8383 20.555L17.3978 21.0201L13.5156 20.3926L17.8383 20.555Z" fill="#D7C1B3" stroke="#D7C1B3" stroke-width="0.0951928"/>
<path d="M18.047 19.4143L13.5156 20.3921L14.5756 18.2676L18.047 19.4143Z" fill="#E4761B" stroke="#E4761B" stroke-width="0.0951928"/>
<path d="M13.5156 20.3919L18.047 19.4141L17.8383 20.5544L13.5156 20.3919Z" fill="#D7C1B3" stroke="#D7C1B3" stroke-width="0.0951928"/>
<path d="M9.08656 12.9416L8.9375 10.4922L12.1406 11.1834L9.08656 12.9416ZM9.40455 14.273L8.964 13.843L9.26212 13.55L9.40455 14.273Z" fill="#763D16" stroke="#763D16" stroke-width="0.0951928"/>
<path d="M15.5 16.49L16.242 15.8594L16.136 17.401L15.5 16.49Z" fill="#CD6116" stroke="#CD6116" stroke-width="0.0951928"/>
<path d="M16.2359 15.8594L15.4939 16.49L14.4141 17.0283L16.2359 15.8594Z" fill="#CD6116" stroke="#CD6116" stroke-width="0.0951928"/>
<path d="M19.7121 19.2299L19.51 19.0866L18.0625 17.2773L19.7121 19.2299Z" fill="#F6851B" stroke="#F6851B" stroke-width="0.0951928"/>
<path d="M14.4191 17.0288L12.9219 15.793L16.2409 15.8599L14.4191 17.0288Z" fill="#CD6116" stroke="#CD6116" stroke-width="0.0951928"/>
<path d="M16.1328 17.401L16.2388 15.8594L16.6462 16.8341L16.1328 17.401Z" fill="#E4751F" stroke="#E4751F" stroke-width="0.0951928"/>
<path d="M8.8125 13.1845L9.08081 12.9424L9.25636 13.5508L8.8125 13.1845Z" fill="#763D16" stroke="#763D16" stroke-width="0.0951928"/>
<path d="M16.1299 17.4012L14.4141 17.0285L15.4939 16.4902L16.1299 17.4012Z" fill="#233447" stroke="#233447" stroke-width="0.0951928"/>
<path d="M12.1406 11.1838L8.9375 10.4926L10.2459 8.33301L12.1406 11.1838Z" fill="#763D16" stroke="#763D16" stroke-width="0.0951928"/>
<path d="M17.3987 21.0195L17.5809 21.4973L14.6328 20.8125L17.3987 21.0195Z" fill="#C0AD9E" stroke="#C0AD9E" stroke-width="0.0951928"/>
<path d="M14.5764 18.2674L14.4141 17.0283L16.1299 17.401L14.5764 18.2674Z" fill="#F6851B" stroke="#F6851B" stroke-width="0.0951928"/>
<path d="M12.9219 15.793L14.4191 17.0288L14.5814 18.2679L12.9219 15.793Z" fill="#E4751F" stroke="#E4751F" stroke-width="0.0951928"/>
<path d="M16.6465 16.8345L17.9582 16.7613L19.5084 19.0865L16.6465 16.8345ZM12.92 15.793L14.5795 18.2679L12.5391 18.3634L12.92 15.793Z" fill="#F6851B" stroke="#F6851B" stroke-width="0.0951928"/>
<path d="M16.6462 16.834L18.2759 19.2197L16.1328 17.401L16.6462 16.834Z" fill="#E4751F" stroke="#E4751F" stroke-width="0.0951928"/>
<path d="M16.1328 17.4014L18.2759 19.2201L18.0507 19.4144L16.1328 17.4014Z" fill="#F6851B" stroke="#F6851B" stroke-width="0.0951928"/>
<path d="M18.0495 19.414L14.5781 18.2673L16.1316 17.401L18.0495 19.414ZM19.507 19.0859L18.2748 19.2197L16.6451 16.834L19.507 19.0859Z" fill="#F6851B" stroke="#F6851B" stroke-width="0.0951928"/>
<path d="M19.8298 20.207L19.2998 21.2295L17.5806 21.497L19.8298 20.207ZM17.5806 21.497L17.3984 21.0193L17.839 20.5542L17.5806 21.497Z" fill="#C0AD9E" stroke="#C0AD9E" stroke-width="0.0951928"/>
<path d="M17.8443 20.5542L18.1689 20.43L17.5859 21.497L17.8443 20.5542ZM17.5859 21.497L18.1689 20.43L19.8351 20.207L17.5859 21.497Z" fill="#C0AD9E" stroke="#C0AD9E" stroke-width="0.0951928"/>
<path d="M19.5111 19.0859L19.9185 19.3248L18.6797 19.4682L19.5111 19.0859Z" fill="#161616" stroke="#161616" stroke-width="0.0951928"/>
<path d="M18.6742 19.4682L18.2734 19.2197L19.5057 19.0859L18.6742 19.4682ZM18.5318 19.6561L20.039 19.4809L19.8303 20.2071L18.5318 19.6561Z" fill="#161616" stroke="#161616" stroke-width="0.0951928"/>
<path d="M19.8345 20.2071L18.1684 20.4301L18.536 19.6561L19.8345 20.2071ZM18.1684 20.4301L17.8438 20.5543L18.0524 19.414L18.1684 20.4301ZM18.0524 19.414L18.2777 19.2197L18.6785 19.4682L18.0524 19.414ZM19.9173 19.3248L20.0432 19.4809L18.536 19.6561L19.9173 19.3248Z" fill="#161616" stroke="#161616" stroke-width="0.0951928"/>
<path d="M18.5305 19.6565L18.6729 19.4685L19.9118 19.3252L18.5305 19.6565ZM18.0469 19.4144L18.5305 19.6565L18.1628 20.4305L18.0469 19.4144Z" fill="#161616" stroke="#161616" stroke-width="0.0951928"/>
<path d="M18.6729 19.4682L18.5305 19.6561L18.0469 19.4141L18.6729 19.4682Z" fill="#161616" stroke="#161616" stroke-width="0.0951928"/>
</g>
<defs>
<clipPath id="clip0_5948_37708">
<rect width="30" height="30" fill="white"/>
</clipPath>
</defs>
</svg>
