<svg
		xmlns="http://www.w3.org/2000/svg"
		width="32"
		height="32"
		viewBox="0 0 32 32"
		fill="none">
		<g clip-path="url(#clip0_6570_11702)">
			<path
				d="M5.71178 18.101C5.36933 18.101 5.09347 18.38 5.09347 18.7262L5.09347 24.0932C5.09347 24.4395 5.36933 24.7184 5.71178 24.7184C6.05423 24.7184 6.33009 24.4395 6.33009 24.0932L6.33009 18.7262C6.32058 18.38 6.04472 18.101 5.71178 18.101ZM8.57504 16.3505C8.23259 16.3505 7.95673 16.6294 7.95673 16.9757L7.95673 24.603C7.95673 24.9492 8.23259 25.2282 8.57504 25.2282C8.91749 25.2282 9.19335 24.9492 9.19335 24.603L9.19335 16.9757C9.19335 16.6294 8.91749 16.3505 8.57504 16.3505ZM11.4478 15.5714C11.1054 15.5714 10.8295 15.8504 10.8295 16.1966L10.8295 31.3839C10.8295 31.7301 11.1054 32.0091 11.4478 32.0091C11.7903 32.0091 12.0661 31.7301 12.0661 31.3839L12.0661 16.187C12.0661 15.8504 11.7903 15.5714 11.4478 15.5714ZM14.3206 16.716C13.9781 16.716 13.7023 16.9949 13.7023 17.3412L13.7023 23.343C13.7023 23.6893 13.9781 23.9682 14.3206 23.9682C14.663 23.9682 14.9389 23.6893 14.9389 23.343L14.9389 17.3412C14.9294 16.9949 14.6535 16.716 14.3206 16.716ZM17.1838 18.4184C16.8414 18.4184 16.5655 18.6974 16.5655 19.0436L16.5655 20.7076C16.5655 21.0538 16.8414 21.3328 17.1838 21.3328C17.5263 21.3328 17.8022 21.0538 17.8022 20.7076L17.8022 19.0436C17.8022 18.6974 17.5263 18.4184 17.1838 18.4184ZM20.0566 19.3803C19.7142 19.3803 19.4383 19.6592 19.4383 20.0055L19.4383 28.2868C19.4383 28.633 19.7142 28.912 20.0566 28.912C20.3991 28.912 20.6749 28.633 20.6749 28.2868L20.6749 20.0055C20.6749 19.6592 20.3991 19.3803 20.0566 19.3803ZM22.9294 19.4764C22.5869 19.4764 22.3111 19.7554 22.3111 20.1016L22.3111 27.6231C22.3111 27.9694 22.5869 28.2483 22.9294 28.2483C23.2718 28.2483 23.5477 27.9694 23.5477 27.6231L23.5477 20.1016C23.5382 19.7554 23.2623 19.4764 22.9294 19.4764ZM25.7926 18.8801C25.4502 18.8801 25.1743 19.159 25.1743 19.5053L25.1743 23.266C25.1743 23.6123 25.4502 23.8912 25.7926 23.8912C26.1351 23.8912 26.411 23.6123 26.411 23.266L26.411 19.5053C26.411 19.159 26.1351 18.8801 25.7926 18.8801Z"
				fill="#5D616C"
			/>
			<path
				d="M27.8861 15.6008C27.6958 15.3219 27.3058 15.245 27.0299 15.4469C23.6815 17.7842 19.6958 17.7842 16.3474 15.4469C12.5614 12.8019 8.04301 12.8019 4.26656 15.4469C3.9907 15.6393 3.9146 16.0337 4.11436 16.3126C4.30461 16.5915 4.69462 16.6685 4.97048 16.4665C8.31888 14.1292 12.3046 14.1292 15.653 16.4665C17.546 17.7938 19.6197 18.4478 21.6934 18.4478C23.7671 18.4478 25.8409 17.7842 27.7339 16.4665C28.0097 16.2741 28.0858 15.8894 27.8861 15.6008Z"
				fill="#5D616C"
			/>
			<path
				d="M17.0505 14.4178C19.9994 16.4857 23.3858 16.4857 26.3347 14.4178C26.3537 14.4082 26.3727 14.3889 26.3918 14.3793C26.4393 14.3505 26.8008 14.1196 27.3906 13.783C27.4952 13.1482 27.5618 12.5038 27.5618 11.8401C27.5618 5.29967 22.3109 -1.94401e-08 15.8424 -1.2572e-08C9.37391 -5.70385e-09 4.13253 5.29967 4.13253 11.8401C4.13253 12.5518 4.20863 13.2444 4.32278 13.9273C8.38462 11.4842 13.0743 11.6477 17.0505 14.4178Z"
				fill="#5D616C"
			/>
		</g>
		<defs>
			<clipPath id="clip0_6570_11702">
				<rect width="32" height="32" fill="white" />
			</clipPath>
		</defs>
	</svg>