<svg width="54" height="54" viewBox="0 0 54 54" fill="none" xmlns="http://www.w3.org/2000/svg">
      <g opacity="0.16">
      <path fillRule="evenodd" clipRule="evenodd" d="M46 25H26C25.4477 25 25 25.4477 25 26V46C25 46.5523 25.4477 47 26 47H46C46.5523 47 47 46.5523 47 46V26C47 25.4477 46.5523 25 46 25ZM26 22H46C48.2091 22 50 23.7909 50 26V46C50 48.2091 48.2091 50 46 50H26C23.7909 50 22 48.2091 22 46V26C22 23.7909 23.7909 22 26 22Z" fill="#5D616C"/>
      <path d="M31 3H7C4.79086 3 3 4.79086 3 7V31C3 33.2091 4.79086 35 7 35H19V25C19 21.6863 21.6863 19 25 19H35V7C35 4.79086 33.2091 3 31 3Z" fill="#5D616C"/>
      </g>
    </svg>