<svg width="14" height="14" viewBox="0 0 14 14" fill="none" xmlns="http://www.w3.org/2000/svg">
<path d="M0.333008 13.6674L0.333008 7.83402L6.16634 7.83402L3.48551 10.5174C3.9434 10.9856 4.48999 11.3579 5.09335 11.6126C5.69671 11.8673 6.34476 11.9992 6.99967 12.0007C8.03239 11.9992 9.03929 11.6779 9.88206 11.081C10.7248 10.4842 11.3621 9.641 11.7063 8.66735L11.7213 8.66735C11.8163 8.39652 11.8888 8.11735 11.9372 7.83402L13.6138 7.83402C13.4109 9.44503 12.6269 10.9266 11.4091 12.0006C10.1913 13.0746 8.62342 13.6673 6.99967 13.6674L6.99134 13.6674C6.11619 13.67 5.24921 13.499 4.44059 13.1642C3.63197 12.8295 2.89778 12.3377 2.28051 11.7174L0.333008 13.6674ZM2.06134 6.16735L0.384674 6.16735C0.587571 4.55691 1.37104 3.07581 2.58814 2.00186C3.80523 0.927903 5.37233 0.334881 6.99551 0.334018L6.99967 0.334018C7.87497 0.331246 8.74213 0.502173 9.5509 0.836898C10.3597 1.17162 11.094 1.66349 11.7113 2.28402L13.6663 0.334018L13.6663 6.16735L7.83301 6.16735L10.518 3.48402C10.0597 3.01525 9.5124 2.64261 8.90827 2.38791C8.30415 2.13321 7.65529 2.00157 6.99967 2.00068C5.96696 2.00221 4.96006 2.32347 4.11729 2.92033C3.27452 3.51719 2.63724 4.36036 2.29301 5.33402L2.27801 5.33402C2.18217 5.60485 2.10967 5.88402 2.06217 6.16735L2.06134 6.16735Z" fill="#A2A7B0"/>
</svg>