<svg xmlns="http://www.w3.org/2000/svg" width="170" height="119" viewBox="0 0 170 119" fill="none">
<g opacity="0.16" clip-path="url(#clip0_986_27649)">
<path d="M104.823 55.4238C97.4283 51.1002 89.2579 48.0334 80.5822 46.5032C76.7567 45.8285 72.833 45.4525 68.8341 45.3993C68.5055 45.3949 68.1763 45.3927 67.8466 45.3927C57.8466 45.3927 48.3015 47.4111 39.5703 51.0761V21.4103C48.3015 17.7453 57.8466 15.7269 67.8466 15.7269C68.1763 15.7269 68.5055 15.7291 68.8341 15.7334C69.1013 15.737 69.368 15.742 69.6345 15.7484C70.6657 15.7733 71.6919 15.8196 72.7125 15.887C84.3283 16.6541 95.2285 20.1482 104.823 25.758M104.823 55.4238C105.29 55.6967 105.754 55.9746 106.214 56.2575M104.823 55.4238C105.284 55.7067 105.747 55.9846 106.214 56.2575M106.214 26.5916C105.747 26.3187 105.284 26.0408 104.823 25.758M106.214 26.5916C105.754 26.3088 105.29 26.0309 104.823 25.758M106.214 26.5916C113.609 30.9152 121.779 33.9821 130.455 35.5123C134.28 36.187 138.204 36.563 142.203 36.6162C142.532 36.6205 142.861 36.6228 143.191 36.6228C153.191 36.6228 162.736 34.6044 171.467 30.9393V60.6052C162.736 64.2702 153.191 66.2886 143.191 66.2886C142.861 66.2886 142.532 66.2864 142.203 66.282C141.936 66.2785 141.669 66.2735 141.403 66.2671C140.371 66.2422 139.345 66.1958 138.325 66.1284C126.709 65.3613 115.809 61.8673 106.214 56.2575M67.8466 60.2256C69.4813 60.2256 71.1038 60.2796 72.7125 60.3858C84.3285 61.1529 95.2289 64.6471 104.824 70.2571C105.084 70.4171 105.346 70.5754 105.608 70.7322V100.388C105.348 100.231 105.086 100.076 104.823 99.9228C93.8999 93.536 81.2841 89.8915 67.8466 89.8915C57.8466 89.8915 48.3015 91.9099 39.5703 95.5749V65.9091C48.3015 62.244 57.8466 60.2256 67.8466 60.2256ZM143.191 21.7898C141.556 21.7898 139.933 21.7359 138.325 21.6296C126.709 20.8625 115.809 17.3685 106.214 11.7586C105.983 11.6167 105.751 11.4761 105.519 11.3367V-18.3188C105.75 -18.1804 105.981 -18.0433 106.214 -17.9073C117.137 -11.5205 129.753 -7.87604 143.191 -7.87604C153.191 -7.87604 162.736 -9.89444 171.467 -13.5595V16.1064C162.736 19.7714 153.191 21.7898 143.191 21.7898Z" stroke="url(#paint0_linear_986_27649)"/>
</g>
<defs>
<linearGradient id="paint0_linear_986_27649" x1="168.066" y1="-1.28779" x2="55.377" y2="61.8183" gradientUnits="userSpaceOnUse">
<stop stop-color="#2E90FA"/>
<stop offset="1" stop-color="#2E90FA" stop-opacity="0"/>
</linearGradient>
<clipPath id="clip0_986_27649">
<rect width="170" height="119" fill="white"/>
</clipPath>
</defs>
</svg>