<svg xmlns="http://www.w3.org/2000/svg" width="20" height="20" viewBox="0 0 20 20" fill="none">
<path fill-rule="evenodd" clip-rule="evenodd" d="M12.4212 13.5992C11.2923 14.4768 9.87376 14.9993 8.33317 14.9993C4.65127 14.9993 1.6665 12.0146 1.6665 8.33268C1.6665 4.65078 4.65127 1.66602 8.33317 1.66602C12.0151 1.66602 14.9998 4.65078 14.9998 8.33268C14.9998 9.87327 14.4773 11.2918 13.5997 12.4207L18.0891 16.9101C18.4145 17.2355 18.4145 17.7632 18.0891 18.0886C17.7637 18.414 17.236 18.414 16.9106 18.0886L12.4212 13.5992ZM13.3332 8.33268C13.3332 11.0941 11.0946 13.3327 8.33317 13.3327C5.57175 13.3327 3.33317 11.0941 3.33317 8.33268C3.33317 5.57126 5.57175 3.33268 8.33317 3.33268C11.0946 3.33268 13.3332 5.57126 13.3332 8.33268Z" fill="#5D616C"/>
</svg>