<svg width="16" height="17" viewBox="0 0 16 17" fill="none" xmlns="http://www.w3.org/2000/svg">
<g id="search">
<path id="Vector" d="M14.5003 14.2933L10.7243 10.5173C11.6317 9.42796 12.0842 8.03072 11.9876 6.61625C11.8911 5.20179 11.2529 3.879 10.2059 2.92306C9.15892 1.96712 7.78367 1.45164 6.36628 1.48384C4.94889 1.51605 3.59848 2.09347 2.59597 3.09597C1.59347 4.09848 1.01605 5.44889 0.983845 6.86628C0.951639 8.28367 1.46712 9.65892 2.42306 10.7059C3.379 11.7529 4.70179 12.3911 6.11625 12.4876C7.53072 12.5842 8.92796 12.1317 10.0173 11.2243L13.7933 15.0003L14.5003 14.2933ZM2.0003 7.0003C2.0003 6.11029 2.26422 5.24026 2.75869 4.50024C3.25316 3.76021 3.95596 3.18344 4.77823 2.84284C5.60049 2.50225 6.50529 2.41313 7.37821 2.58677C8.25112 2.7604 9.05295 3.18899 9.68228 3.81832C10.3116 4.44766 10.7402 5.24948 10.9138 6.1224C11.0875 6.99531 10.9984 7.90011 10.6578 8.72238C10.3172 9.54464 9.74039 10.2474 9.00037 10.7419C8.26035 11.2364 7.39032 11.5003 6.5003 11.5003C5.30723 11.499 4.16341 11.0244 3.31978 10.1808C2.47616 9.33719 2.00163 8.19337 2.0003 7.0003Z" fill="#938F99"/>
</g>
</svg>
