<svg xmlns="http://www.w3.org/2000/svg" width="24" height="24" viewBox="0 0 20 20" fill="currentcolor">
<path fill-rule="evenodd" clip-rule="evenodd" d="M9.98364 17.9897C12.3562 17.9897 14.4963 16.962 15.9649 15.3253C15.2848 14.7334 14.2535 14.6957 13.5235 15.2859L13.3875 15.4025C12.0549 16.4782 10.1111 16.3135 8.97299 15.044C8.34973 14.3457 7.29086 14.2788 6.57979 14.8896L4.97514 16.2552C6.34564 17.3498 8.08802 18 9.98364 18V17.9897ZM12.5817 14.1227C13.8455 13.1053 15.6361 13.1448 16.8516 14.1227C17.5816 12.9217 18 11.5063 18 9.99485C18 8.31868 17.4852 6.75745 16.6002 5.47931C16.0269 5.35406 15.414 5.49818 14.937 5.91508L14.801 6.03174C13.5166 7.16577 11.5728 7.09715 10.3762 5.87733C9.72538 5.20824 8.65447 5.18936 7.97439 5.82929L6.10459 7.57238L5.08361 6.48638L6.95168 4.74158C8.22576 3.54922 10.2195 3.58868 11.4454 4.82908C12.0876 5.47759 13.1275 5.51705 13.8093 4.91658L13.9453 4.79991C14.3637 4.43105 14.8406 4.18915 15.3451 4.05361C13.923 2.77547 12.0359 2 9.97504 2C5.89971 2 2.53546 5.02295 2.01894 8.93802C3.25342 8.34613 4.78059 8.56916 5.79296 9.60712C6.42484 10.2556 7.45615 10.3243 8.17583 9.76153L9.21575 8.94832C10.5294 7.93095 12.3768 7.97898 13.6303 9.06498L15.6636 10.8287L14.6822 11.9524L12.6489 10.1887C11.9395 9.56766 10.8789 9.54021 10.1403 10.1201L9.1004 10.9333C7.77811 11.961 5.90143 11.834 4.72377 10.6434C4.04197 9.94682 2.93318 9.92623 2.22382 10.5867L2 10.7995C2.16529 12.4654 2.8557 13.9871 3.89562 15.1898L5.60702 13.7264C6.93963 12.5923 8.93339 12.7279 10.0904 14.0266C10.7033 14.7043 11.7346 14.7918 12.444 14.2205L12.58 14.1038V14.1227H12.5817Z"/>
</svg>