<svg
    xmlns="http://www.w3.org/2000/svg"
    width="16"
    height="16"
    viewBox="0 0 16 16"
    fill="none"
    >
    <path
        opacity="0.5"
        d="M8.00261 1.33301C6.68407 1.33301 5.39513 1.724 4.29881 2.45654C3.20248 3.18909 2.34799 4.23028 1.84341 5.44845C1.33883 6.66663 1.2068 8.00707 1.46404 9.30028C1.72127 10.5935 2.35621 11.7814 3.28856 12.7137C4.22091 13.6461 5.4088 14.281 6.70201 14.5382C7.99521 14.7955 9.33566 14.6635 10.5538 14.1589C11.772 13.6543 12.8132 12.7998 13.5457 11.7035C14.2783 10.6071 14.6693 9.31822 14.6693 7.99967C14.6693 7.1242 14.4968 6.25729 14.1618 5.44845C13.8268 4.63961 13.3357 3.90469 12.7167 3.28563C12.0976 2.66657 11.3627 2.17551 10.5538 1.84048C9.74499 1.50545 8.87809 1.33301 8.00261 1.33301ZM8.00261 13.333C6.94777 13.333 5.91663 13.0202 5.03957 12.4342C4.1625 11.8481 3.47892 11.0152 3.07525 10.0407C2.67158 9.06611 2.56596 7.99376 2.77175 6.95919C2.97754 5.92463 3.48549 4.97432 4.23137 4.22844C4.97725 3.48256 5.92756 2.97461 6.96213 2.76882C7.99669 2.56303 9.06905 2.66865 10.0436 3.07232C11.0181 3.47598 11.8511 4.15957 12.4371 5.03663C13.0231 5.9137 13.3359 6.94484 13.3359 7.99967C13.3359 9.41416 12.774 10.7707 11.7738 11.7709C10.7737 12.7711 9.4171 13.333 8.00261 13.333Z"
        fill="#5D616C"
    />
    <path
        d="M13.3333 7.99967H14.6667C14.6667 7.1242 14.4942 6.25729 14.1592 5.44845C13.8242 4.63961 13.3331 3.90469 12.714 3.28563C12.095 2.66657 11.3601 2.17551 10.5512 1.84048C9.74239 1.50545 8.87548 1.33301 8 1.33301V2.66634C9.41449 2.66634 10.771 3.22824 11.7712 4.22844C12.7714 5.22863 13.3333 6.58519 13.3333 7.99967Z"
        fill="#5D616C"
    />
</svg>