<svg xmlns="http://www.w3.org/2000/svg" width="24" height="24" viewBox="0 0 24 24" fill="currentcolor">
<g clip-path="url(#clip0_15523_72750)">
<path fill-rule="evenodd" clip-rule="evenodd" d="M7.61506 5.24129C7.77295 5.08684 7.98711 5.00005 8.21044 5H19.1581C19.3246 5.00003 19.4874 5.04835 19.6258 5.13885C19.7643 5.22934 19.8722 5.35794 19.9359 5.5084C19.9996 5.65886 20.0163 5.82442 19.9838 5.98414C19.9514 6.14387 19.8712 6.29059 19.7534 6.40576L17.2271 8.87635C17.0692 9.03081 16.855 9.1176 16.6317 9.11765H5.68407C5.51754 9.11761 5.35476 9.06929 5.2163 8.9788C5.07785 8.88831 4.96994 8.7597 4.90622 8.60924C4.84249 8.45879 4.82582 8.29323 4.8583 8.1335C4.89077 7.97378 4.97095 7.82705 5.08869 7.71188L7.61506 5.24129ZM4.94132 10.376C5.01328 10.2446 5.12037 10.1347 5.25118 10.0581C5.382 9.98153 5.53161 9.94112 5.68407 9.94118H16.6317C16.7703 9.94116 16.9068 9.97459 17.029 10.0385C17.1512 10.1025 17.2554 10.1949 17.3323 10.3076L19.0166 12.7782C19.1012 12.9023 19.1498 13.0464 19.1572 13.1953C19.1646 13.3443 19.1305 13.4923 19.0586 13.6238C18.9867 13.7553 18.8796 13.8652 18.7488 13.9418C18.618 14.0184 18.4684 14.0588 18.3159 14.0588H7.36832C7.22971 14.0588 7.09324 14.0254 6.97102 13.9615C6.84879 13.8975 6.7446 13.8051 6.66767 13.6924L4.98342 11.2218C4.89875 11.0977 4.85011 10.9535 4.8427 10.8046C4.83528 10.6556 4.86937 10.5075 4.94132 10.376ZM6.77294 15.1236C6.93083 14.9692 7.14499 14.8824 7.36832 14.8824H18.3159C18.4825 14.8824 18.6452 14.9307 18.7837 15.0212C18.9222 15.1117 19.0301 15.2403 19.0938 15.3908C19.1575 15.5412 19.1742 15.7068 19.1417 15.8665C19.1092 16.0262 19.0291 16.1729 18.9113 16.2881L16.3849 18.7587C16.2271 18.9132 16.0129 19 15.7896 19H4.84194C4.67541 19 4.51263 18.9516 4.37418 18.8612C4.23573 18.7707 4.12782 18.6421 4.06409 18.4916C4.00037 18.3411 3.98369 18.1756 4.01617 18.0159C4.04865 17.8561 4.12883 17.7094 4.24656 17.5942L6.77294 15.1236Z" fill="currentcolor"/>
</g>
</svg>