<svg width="32" height="33" viewBox="0 0 32 33" fill="none" xmlns="http://www.w3.org/2000/svg">
<g id="brands / sol">
<path id="Vector" fill-rule="evenodd" clip-rule="evenodd" d="M9.86089 7.23131C10.0819 7.01949 10.3818 6.90045 10.6944 6.90039L26.0211 6.90039C26.2542 6.90044 26.4821 6.9667 26.676 7.09081C26.8698 7.21491 27.0209 7.39128 27.1101 7.59763C27.1993 7.80397 27.2226 8.03102 27.1772 8.25007C27.1317 8.46913 27.0195 8.67035 26.8546 8.8283L23.3177 12.2165C23.0966 12.4284 22.7968 12.5474 22.4842 12.5474L7.1575 12.5474C6.92436 12.5474 6.69647 12.4811 6.50263 12.357C6.3088 12.2329 6.15772 12.0566 6.06851 11.8502C5.9793 11.6439 5.95595 11.4168 6.00142 11.1978C6.04689 10.9787 6.15914 10.7775 6.32397 10.6195L9.86089 7.23131ZM6.11765 14.2732C6.21839 14.0929 6.36833 13.9423 6.55146 13.8372C6.7346 13.7322 6.94406 13.6768 7.1575 13.6769L22.4842 13.6769C22.6782 13.6768 22.8693 13.7227 23.0404 13.8104C23.2115 13.898 23.3574 14.0248 23.4651 14.1794L25.823 17.5677C25.9415 17.7378 26.0095 17.9355 26.0199 18.1397C26.0302 18.3439 25.9825 18.547 25.8818 18.7273C25.7811 18.9076 25.6312 19.0583 25.4481 19.1634C25.265 19.2685 25.0556 19.324 24.8421 19.3239L9.51545 19.3239C9.3214 19.3239 9.13034 19.2781 8.95923 19.1904C8.78812 19.1027 8.64224 18.976 8.53454 18.8213L6.1766 15.4331C6.05806 15.263 5.98996 15.0652 5.97958 14.861C5.9692 14.6567 6.01692 14.4535 6.11765 14.2732ZM8.68191 20.7842C8.90296 20.5724 9.20279 20.4534 9.51545 20.4533L24.8421 20.4533C25.0753 20.4534 25.3031 20.5196 25.497 20.6437C25.6908 20.7679 25.8419 20.9442 25.9311 21.1506C26.0203 21.3569 26.0437 21.584 25.9982 21.803C25.9527 22.0221 25.8405 22.2233 25.6756 22.3812L22.1387 25.7695C21.9177 25.9813 21.6178 26.1003 21.3052 26.1004L5.97853 26.1004C5.74538 26.1003 5.51749 26.0341 5.32366 25.91C5.12982 25.7859 4.97875 25.6095 4.88954 25.4032C4.80032 25.1968 4.77697 24.9698 4.82245 24.7507C4.86792 24.5317 4.98016 24.3304 5.14499 24.1725L8.68191 20.7842Z" fill="#938F99"/>
</g>
</svg>
