<svg xmlns="http://www.w3.org/2000/svg" width="16" height="16" viewBox="0 0 16 16" fill="currentcolor">
  <path fill-rule="evenodd" clip-rule="evenodd" d="M3.67675 12.5689C4.57908 14.0913 6.19532 15 7.99999 15C9.80467 15 11.4206 14.0913 12.3232 12.5689C13.2256 11.0469 13.2256 9.22947 12.3232 7.70713L8.52085 1.29288C8.28936 0.902372 7.71062 0.902373 7.47913 1.29288L3.67675 7.70713C2.77442 9.22915 2.77442 11.0466 3.67675 12.5689ZM6.92886 4.34442L7.73954 2.9768C7.85531 2.78154 8.14468 2.78154 8.26044 2.9768L11.3792 8.23813C11.9523 9.20472 12.0598 10.3234 11.7019 11.3471C11.6647 11.1801 11.6126 11.0092 11.5424 10.8366C11.1116 9.77773 10.1375 8.96065 8.64662 8.40785C7.62161 8.02918 6.96735 7.47224 6.7015 6.75243C6.35907 5.82466 6.71673 4.81296 6.92886 4.34442ZM5.54647 6.67644L4.62072 8.23813C3.91533 9.42807 3.91533 10.8486 4.62072 12.0385C5.32612 13.2285 6.5892 13.9386 7.99999 13.9386C8.93701 13.9386 9.80912 13.625 10.4958 13.0658C10.5854 12.8462 10.8627 12.0423 10.5201 11.2138C10.2036 10.4488 9.44206 9.83805 8.2564 9.39815C6.91614 8.903 6.0454 8.12999 5.66888 7.10126C5.61702 6.95962 5.57672 6.81768 5.54647 6.67644Z" fill="currentcolor"/>
</svg>