<svg width="30" height="30" viewBox="0 0 30 30" fill="currentcolor" xmlns="http://www.w3.org/2000/svg">
<g clip-path="url(#clip0_5953_53370)">
<path d="M15 30C23.2843 30 30 23.2843 30 15C30 6.71573 23.2843 -2.47228e-08 15 -1.59267e-08C6.71573 -7.13063e-09 7.13062e-09 6.71573 1.59267e-08 15C2.47228e-08 23.2843 6.71573 30 15 30Z" fill="transparent"/>
<path fill-rule="evenodd" clip-rule="evenodd" d="M18.3015 13.8389L18.3012 13.8395C18.8748 14.5556 19.2176 15.4627 19.2176 16.4493C19.2176 17.4505 18.8645 18.3699 18.2755 19.0909L18.2248 19.153L18.2113 19.0741C18.1998 19.007 18.1864 18.9393 18.1708 18.871C17.876 17.5812 16.9155 16.4752 15.3346 15.5797C14.2671 14.9766 13.6561 14.2505 13.4956 13.4254C13.392 12.8919 13.469 12.356 13.6179 11.897C13.7667 11.4382 13.9881 11.0537 14.1762 10.8223L14.7913 10.0734C14.8991 9.94205 15.1009 9.94205 15.2088 10.0734L18.3015 13.8389ZM19.2742 13.0908L15.1524 8.07187C15.0737 7.97604 14.9263 7.97604 14.8476 8.07187L10.7257 13.0905L10.7124 13.1074C9.95391 14.0446 9.5 15.2357 9.5 16.5323C9.5 19.552 11.9624 22 15 22C18.0376 22 20.5 19.552 20.5 16.5323C20.5 15.2357 20.0461 14.0446 19.2876 13.1074L19.2742 13.0908ZM11.712 13.8227L12.0808 13.3736L12.092 13.4564C12.1008 13.5221 12.1115 13.5881 12.1242 13.6544C12.3627 14.9007 13.2149 15.9399 14.6396 16.7447C15.8781 17.4466 16.5991 18.2536 16.8069 19.1388C16.8936 19.5082 16.909 19.8717 16.8715 20.1894L16.8692 20.2091L16.8513 20.2178C16.2923 20.4897 15.664 20.6423 14.9999 20.6423C12.6706 20.6423 10.7822 18.7651 10.7822 16.4493C10.7822 15.455 11.1303 14.5414 11.712 13.8227Z" fill="#5D616C"/>
</g>
<defs>
<clipPath id="clip0_5953_53370">
<rect width="30" height="30"/>
</clipPath>
</defs>
</svg>
