<svg width="24" height="24" viewBox="0 0 24 24" fill="currentColor" xmlns="http://www.w3.org/2000/svg">
<g clip-path="url(#clip0_6235_69102)">
<path d="M16.952 10.2582L16.9516 10.2591C17.812 11.3333 18.3262 12.6939 18.3262 14.1738C18.3262 15.6756 17.7966 17.0547 16.913 18.1362L16.837 18.2293L16.8168 18.111C16.7996 18.0103 16.7795 17.9087 16.756 17.8063C16.3138 15.8716 14.8731 14.2127 12.5018 12.8694C10.9006 11.9648 9.98399 10.8756 9.74334 9.63802C9.58793 8.83775 9.70347 8.03393 9.92677 7.34545C10.15 6.65719 10.4821 6.08053 10.7642 5.73336L11.6868 4.60999C11.8485 4.41303 12.1513 4.41303 12.3131 4.60999L16.952 10.2582ZM18.411 9.13604L12.2284 1.6078C12.1104 1.46407 11.8894 1.46407 11.7713 1.6078L5.58856 9.1357L5.56861 9.16099C4.43086 10.5668 3.75 12.3534 3.75 14.2982C3.75 18.8277 7.44352 22.4997 11.9999 22.4997C16.5563 22.4997 20.2498 18.8277 20.2498 14.2982C20.2498 12.3534 19.5689 10.5668 18.4312 9.16099L18.411 9.13604ZM7.06791 10.2339L7.62117 9.56028L7.63788 9.68455C7.65112 9.78306 7.66718 9.88204 7.68622 9.98142C8.04403 11.8509 9.32226 13.4096 11.4593 14.6169C13.317 15.6697 14.3985 16.8802 14.7102 18.208C14.8402 18.7621 14.8634 19.3072 14.8071 19.7839L14.8036 19.8134L14.7768 19.8264C13.9384 20.2343 12.9959 20.4632 11.9997 20.4632C8.50579 20.4632 5.67326 17.6474 5.67326 14.1738C5.67326 12.6824 6.19542 11.312 7.06791 10.2339Z" />
</g>
<defs>
<clipPath id="clip0_6235_69102">
<rect width="24" height="24" fill="white"/>
</clipPath>
</defs>
</svg>


