<svg width="24" height="24" viewBox="0 0 24 24" fill="currentcolor" xmlns="http://www.w3.org/2000/svg">
<path d="M16.2978 10.495C17.0342 11.4143 17.4738 12.5794 17.4738 13.8458C17.4738 15.131 17.0206 16.3112 16.2645 17.2367L16.1994 17.3164L16.1821 17.2152C16.1674 17.129 16.1502 17.042 16.1301 16.9544C15.7517 15.2988 14.5188 13.8791 12.4895 12.7296C11.1193 11.9554 10.3348 11.0233 10.1289 9.96425C9.99591 9.27941 10.0948 8.59153 10.2859 8.00235C10.4769 7.41336 10.7611 6.91987 11.0025 6.62277L11.7921 5.66143C11.9304 5.49288 12.1896 5.49288 12.328 5.66143L16.2978 10.495ZM17.5464 9.53468L12.2555 3.09225C12.1546 2.96925 11.9654 2.96925 11.8644 3.09225L6.57338 9.53439L6.55631 9.55603C5.58266 10.7591 5 12.288 5 13.9523C5 17.8285 8.1608 20.9709 12.06 20.9709C15.9592 20.9709 19.12 17.8285 19.12 13.9523C19.12 12.288 18.5373 10.7591 17.5637 9.55603L17.5464 9.53468ZM7.83936 10.4742L8.31282 9.89773L8.32712 10.0041C8.33845 10.0884 8.3522 10.1731 8.36849 10.2581C8.67469 11.858 9.76856 13.1919 11.5974 14.225C13.1871 15.126 14.1126 16.1619 14.3794 17.2982C14.4906 17.7724 14.5105 18.2388 14.4623 18.6468L14.4593 18.672L14.4364 18.6831C13.7189 19.0322 12.9123 19.2281 12.0598 19.2281C9.06985 19.2281 6.64586 16.8184 6.64586 13.8458C6.64586 12.5695 7.09271 11.3968 7.83936 10.4742Z"/>
</svg>
