
<svg xmlns="http://www.w3.org/2000/svg" width="16" height="16" viewBox="0 0 16 16" fill="none">
<path fill-rule="evenodd" clip-rule="evenodd" d="M9.88878 5.98403L9.88854 5.98454C10.3904 6.61118 10.6904 7.40487 10.6904 8.26813C10.6904 9.14422 10.3815 9.94868 9.86603 10.5796L9.82167 10.6339L9.8099 10.5649C9.79987 10.5061 9.78813 10.4469 9.77447 10.3871C9.51649 9.25856 8.67606 8.29083 7.29281 7.50725C6.35872 6.97957 5.82405 6.34415 5.68367 5.62225C5.59301 5.15541 5.66041 4.68651 5.79067 4.2849C5.92088 3.8834 6.1146 3.54702 6.27917 3.34449L6.81735 2.68919C6.91172 2.57429 7.08832 2.57429 7.18269 2.68919L9.88878 5.98403ZM10.7399 5.32942L7.13331 0.937884C7.06446 0.854039 6.93554 0.854039 6.86669 0.937884L3.26001 5.32922L3.24837 5.34397C2.58467 6.16405 2.1875 7.20624 2.1875 8.34074C2.1875 10.983 4.34208 13.125 7 13.125C9.65794 13.125 11.8125 10.983 11.8125 8.34074C11.8125 7.20624 11.4153 6.16405 10.7517 5.34397L10.7399 5.32942ZM4.12298 5.96987L4.44572 5.5769L4.45547 5.64939C4.46319 5.70685 4.47255 5.76459 4.48366 5.82257C4.69239 6.9131 5.43803 7.82238 6.68467 8.52662C7.76831 9.14076 8.39924 9.84693 8.58102 10.6215C8.65686 10.9447 8.67041 11.2627 8.63754 11.5407L8.63553 11.558L8.61989 11.5656C8.1308 11.8035 7.581 11.937 6.99988 11.937C4.96175 11.937 3.30942 10.2945 3.30942 8.26813C3.30942 7.39814 3.61402 6.59875 4.12298 5.96987Z" fill="currentcolor"/>
</svg>

