<svg xmlns="http://www.w3.org/2000/svg" width="24" height="24" viewBox="0 0 32 32" fill="currentcolor">
<path fill-rule="evenodd" clip-rule="evenodd" d="M27.7239 16.5719C27.7226 16.588 27.7162 16.6032 27.7058 16.6153C27.6953 16.6275 27.6813 16.636 27.6658 16.6396C27.6502 16.6432 27.6339 16.6418 27.6192 16.6354C27.6045 16.6291 27.5922 16.6182 27.5841 16.6044L27.5411 16.507C27.5255 16.4798 27.5173 16.449 27.5173 16.4177C27.5173 16.3863 27.5255 16.3555 27.5411 16.3284L27.5841 16.2688C27.6325 16.2039 27.7077 16.2093 27.7077 16.2688C27.7077 16.3284 27.7077 16.4583 27.7077 16.5557M27.1378 14.9806C27.1163 15.0164 27.0859 15.0461 27.0497 15.0667C27.0134 15.0872 26.9725 15.098 26.9308 15.098C26.8892 15.098 26.8483 15.0872 26.812 15.0667C26.7758 15.0461 26.7454 15.0164 26.7239 14.9806L26.6808 14.9102C26.3142 14.3409 25.9082 13.7983 25.4658 13.2864C25.4412 13.2573 25.4254 13.2218 25.4202 13.184C25.4149 13.1462 25.4206 13.1076 25.4364 13.0729C25.4522 13.0382 25.4776 13.0088 25.5094 12.9881C25.5413 12.9674 25.5784 12.9564 25.6163 12.9562C26.6916 12.9562 27.2292 13.2214 27.4067 13.5408C27.5841 13.8601 27.5034 14.2823 27.1378 14.9427M26.9174 20.5828C26.8583 20.7289 26.7991 20.8697 26.7346 21.0158C26.7366 21.0356 26.7366 21.0556 26.7346 21.0753C26.3088 21.863 25.633 22.4843 24.8153 22.8399C24.7714 22.8617 24.7222 22.8702 24.6737 22.8644C24.6251 22.8586 24.5793 22.8387 24.5417 22.8072C24.5042 22.7757 24.4765 22.7339 24.4621 22.6868C24.4476 22.6398 24.4471 22.5896 24.4604 22.5422C24.7624 21.4362 24.9816 20.309 25.1163 19.1701C25.1432 18.948 25.2504 18.7438 25.4174 18.5963C25.7776 18.2824 26.1163 17.9738 26.4228 17.6599C26.4579 17.6252 26.5015 17.6002 26.5491 17.5874C26.5967 17.5747 26.6467 17.5746 26.6944 17.5871C26.7421 17.5997 26.7857 17.6244 26.821 17.659C26.8563 17.6936 26.8821 17.7368 26.8959 17.7844C27.2022 18.6913 27.2172 19.6722 26.9389 20.5882M24.5572 24.3771C24.4712 24.4746 24.3798 24.5666 24.2884 24.664C24.197 24.7614 23.9604 24.9834 23.7938 25.1349C23.7706 25.1543 23.7416 25.1654 23.7114 25.1662C23.6813 25.167 23.6518 25.1576 23.6276 25.1395C23.6034 25.1214 23.5859 25.0956 23.578 25.0663C23.5701 25.037 23.5723 25.0059 23.5841 24.9779C23.5998 24.939 23.6177 24.9011 23.6378 24.8643C23.7077 24.7073 23.7722 24.5449 23.8421 24.3825C23.8501 24.3643 23.8619 24.3481 23.8768 24.335C23.8916 24.3219 23.9092 24.3123 23.9282 24.3068C24.1002 24.2635 24.2615 24.2147 24.4228 24.1606C24.4508 24.1496 24.4818 24.1488 24.5103 24.1583C24.5389 24.1678 24.5632 24.1871 24.5791 24.2128C24.5951 24.2385 24.6016 24.2689 24.5976 24.2989C24.5936 24.329 24.5793 24.3566 24.5572 24.3771ZM22.7884 23.4191C22.43 23.4696 22.059 23.5021 21.6755 23.5165C20.6762 23.5399 19.6774 23.4528 18.697 23.2567C18.6707 23.2507 18.6468 23.2368 18.6284 23.2169C18.61 23.197 18.598 23.172 18.5939 23.1451C18.5899 23.1182 18.5939 23.0908 18.6056 23.0663C18.6173 23.0417 18.636 23.0213 18.6594 23.0077L19.3368 22.6559C20.842 21.8564 22.29 20.9521 23.6701 19.9495C23.6916 19.9345 23.7169 19.9262 23.743 19.9254C23.7691 19.9247 23.7949 19.9317 23.8171 19.9455C23.8393 19.9592 23.8571 19.9793 23.8682 20.003C23.8794 20.0268 23.8834 20.0534 23.8798 20.0794C23.7103 21.1034 23.4641 22.1131 23.1432 23.0997C23.1167 23.1772 23.0696 23.2459 23.007 23.2984C22.9445 23.3509 22.8689 23.3851 22.7884 23.3974M22.4282 24.8805C21.5787 26.5585 20.5411 27.4949 19.5303 27.4786C18.4551 27.4786 17.3422 26.3095 16.5357 24.323C16.5122 24.2619 16.5131 24.194 16.5382 24.1335C16.5632 24.073 16.6105 24.0245 16.6701 23.9982L16.697 23.9982C16.751 23.9793 16.8097 23.9793 16.8637 23.9982C18.2994 24.3986 19.7825 24.6007 21.2723 24.5991L21.7239 24.5991L22.2615 24.572C22.2975 24.5678 22.3339 24.5736 22.3669 24.5887C22.3998 24.6038 22.4281 24.6277 22.4485 24.6577C22.469 24.6878 22.4809 24.7229 22.483 24.7593C22.4851 24.7957 22.4773 24.832 22.4604 24.8643M17.4551 28.047C16.9377 28.1083 16.4168 28.1354 15.8959 28.1282C13.63 28.1341 11.4105 27.482 9.50346 26.2499C9.4751 26.2311 9.45337 26.2037 9.44138 26.1717C9.42939 26.1397 9.42775 26.1047 9.43669 26.0717C9.44563 26.0387 9.4647 26.0094 9.49117 25.9879C9.51764 25.9665 9.55017 25.954 9.5841 25.9522L9.6755 25.9522C10.2046 25.9139 10.7308 25.8416 11.2508 25.7357C12.6066 25.4589 13.9359 25.0641 15.2239 24.5558C15.2853 24.5325 15.3533 24.5341 15.4135 24.5604C15.4737 24.5866 15.5214 24.6355 15.5465 24.6965C15.9567 25.8409 16.629 26.8719 17.5088 27.706C17.5361 27.7302 17.5558 27.7618 17.5655 27.797C17.5753 27.8322 17.5748 27.8695 17.564 27.9044C17.5532 27.9393 17.5326 27.9703 17.5047 27.9937C17.4768 28.0171 17.4427 28.0318 17.4067 28.0362M10.5787 19.6897C11.7194 18.7643 12.9251 17.9231 14.1862 17.1727C14.2017 18.8107 14.3818 20.4428 14.7239 22.0442C14.2239 21.8277 13.7293 21.595 13.24 21.3352C12.3045 20.8508 11.4059 20.2972 10.5518 19.6789M7.33679 24.3392C7.08411 23.8683 7.40669 22.775 9.04109 21.0916C9.08161 21.0513 9.11318 21.0027 9.13372 20.9492C9.15426 20.8957 9.1633 20.8385 9.16026 20.7812C9.15721 20.7239 9.14214 20.6679 9.11604 20.6169C9.08994 20.5659 9.0534 20.5211 9.00883 20.4854L8.80991 20.3284C8.73654 20.2607 8.64062 20.2231 8.54109 20.2231C8.44156 20.2231 8.34565 20.2607 8.27228 20.3284L8.20776 20.3933C7.51244 21.0665 6.93289 21.8512 6.49271 22.7154C6.47164 22.7602 6.43917 22.7987 6.3986 22.8268C6.35804 22.8549 6.3108 22.8718 6.26169 22.8756C6.21258 22.8795 6.16332 22.8702 6.11892 22.8487C6.07452 22.8272 6.03654 22.7943 6.00884 22.7533C4.73822 20.8149 4.06315 18.5425 4.06798 16.2201C4.06762 15.3854 4.15229 14.5529 4.32067 13.7356C4.3284 13.7101 4.34407 13.6878 4.36536 13.6719C4.38666 13.656 4.41245 13.6475 4.43895 13.6475C4.46545 13.6475 4.49125 13.656 4.51254 13.6719C4.53384 13.6878 4.5495 13.7101 4.55723 13.7356C4.83721 14.6151 5.23708 15.4513 5.7454 16.2201C6.55564 17.4305 7.52707 18.5233 8.63249 19.4678C9.03034 19.8142 9.44969 20.1498 9.88518 20.4691C10.7955 21.1406 11.7553 21.7413 12.7561 22.2662C13.2131 22.4989 13.654 22.7262 14.1056 22.9319C14.2315 22.9855 14.3668 23.0131 14.5034 23.0131C14.6401 23.0131 14.7754 22.9855 14.9013 22.9319L15.5465 22.6721C15.6577 22.6207 15.7482 22.5325 15.8029 22.4223C15.8577 22.3121 15.8734 22.1863 15.8475 22.0659C15.8475 22.0334 15.8475 22.0063 15.8475 21.9955C15.4763 20.358 15.2834 18.6846 15.2723 17.0049L15.2723 16.94C15.2723 16.8426 15.2723 16.7451 15.2723 16.6477L15.2723 16.534C15.275 16.5216 15.275 16.5086 15.2723 16.4961L15.2723 16.2201C15.2723 15.917 15.283 15.6139 15.3045 15.3108C15.3858 13.3176 15.7386 11.3452 16.3529 9.44873C16.3785 9.37264 16.3731 9.28943 16.3378 9.21737C16.3025 9.14531 16.2403 9.09029 16.1647 9.06442L15.7077 8.91286C15.6343 8.89052 15.5551 8.89779 15.4869 8.93314C15.4187 8.96849 15.3668 9.02915 15.3422 9.10231C14.6795 11.1563 14.305 13.2933 14.2293 15.4515C14.2229 15.596 14.1807 15.7366 14.1065 15.8604C14.0323 15.9843 13.9285 16.0875 13.8045 16.1606C12.5164 16.9216 11.2823 17.7716 10.111 18.7046C10.0033 18.7934 9.86845 18.8419 9.72926 18.8419C9.59008 18.8419 9.45519 18.7934 9.34754 18.7046C8.31659 17.8221 7.41195 16.8002 6.65938 15.668C5.28841 13.557 4.96583 11.5868 5.73465 10.0983C5.83142 9.93588 5.93357 9.77349 6.0411 9.61111C6.92282 8.43654 8.56798 7.74912 10.7561 7.67334L11.1701 7.67334C12.6069 7.6892 14.0345 7.90598 15.4121 8.31746L15.5088 8.34452L15.5841 8.34452C15.9228 8.44195 16.2615 8.55562 16.6002 8.68012L16.8637 8.78296L16.9497 8.81002L17.0303 8.8425C17.7649 9.12608 18.4829 9.45137 19.1809 9.8168C20.5023 10.5037 21.7446 11.335 22.8852 12.2958C20.4879 12.8992 18.1706 13.7878 15.9819 14.9427C15.9263 14.9705 15.8791 15.0128 15.845 15.0651C15.811 15.1174 15.7915 15.1779 15.7884 15.2404C15.7884 15.3919 15.7884 15.6951 15.7884 15.9332C15.7862 15.9679 15.7932 16.0026 15.8088 16.0336C15.8244 16.0647 15.848 16.0909 15.877 16.1097C15.9061 16.1285 15.9396 16.1391 15.9742 16.1404C16.0087 16.1417 16.0429 16.1337 16.0733 16.1173C18.241 14.943 20.5405 14.0344 22.9228 13.4109C23.1075 13.3646 23.2685 13.2509 23.3748 13.0919C23.4811 12.933 23.525 12.7399 23.4981 12.5502C23.4604 12.2742 23.4174 12.009 23.3744 11.7383C23.3085 11.3997 23.1161 11.0994 22.8368 10.8993C21.8423 10.1381 20.7847 9.46442 19.6755 8.8858C18.9219 8.49124 18.1465 8.14064 17.3529 7.83572C17.3138 7.82086 17.2783 7.79765 17.2489 7.76769C17.2195 7.73773 17.1969 7.70172 17.1826 7.66214C17.1683 7.62256 17.1626 7.58034 17.166 7.53836C17.1695 7.49639 17.1819 7.45565 17.2024 7.41894C18.0034 5.97373 18.9604 5.16182 19.8905 5.16182C20.9658 5.16182 22.0787 6.33098 22.8905 8.31746C23.3251 9.42047 23.6406 10.5674 23.8314 11.7383C23.9228 12.2796 23.9981 12.8209 24.0518 13.4C24.1444 14.3859 24.1821 15.3762 24.1647 16.3662C24.1647 17.0104 24.1217 17.6437 24.0626 18.2607C22.4193 19.5746 20.655 20.7274 18.7938 21.7032C18.1379 22.0551 17.4819 22.3798 16.8314 22.6775L16.8045 22.6775L16.654 22.7479C16.1164 22.9915 15.5787 23.2188 15.0411 23.4245L14.9551 23.457L14.8475 23.5003L14.5841 23.6031L14.5088 23.6031L14.1916 23.7168L14.154 23.7168C13.1467 24.1155 12.1116 24.4394 11.0572 24.6857C8.70776 25.1403 7.60024 24.7939 7.34755 24.3122M9.02496 6.51501C11.0296 5.07429 13.433 4.30371 15.8959 4.31201C16.5478 4.31209 17.1986 4.36458 17.8422 4.46898C17.8808 4.47479 17.9169 4.49194 17.946 4.51828C17.975 4.54462 17.9957 4.579 18.0054 4.61711C18.0152 4.65522 18.0136 4.69538 18.0008 4.73257C17.988 4.76977 17.9646 4.80234 17.9336 4.82623C17.2297 5.42687 16.6521 6.16297 16.2346 6.99133C16.1771 7.1041 16.0821 7.19296 15.9661 7.24241C15.8502 7.29187 15.7207 7.29879 15.6002 7.26197C14.0189 6.79761 12.3761 6.58037 10.7293 6.61785C10.1882 6.63229 9.64896 6.68839 9.11636 6.78565C9.08622 6.79131 9.05506 6.78642 9.02806 6.7718C9.00106 6.75717 8.97983 6.73369 8.9679 6.70526C8.95598 6.67682 8.95407 6.64513 8.96249 6.61545C8.97091 6.58577 8.98916 6.55988 9.01421 6.54207M25.2615 15.2025C25.2583 15.1702 25.2667 15.1377 25.2853 15.1111C25.3038 15.0845 25.3313 15.0656 25.3626 15.0577C25.394 15.0498 25.4271 15.0535 25.4559 15.0682C25.4847 15.0829 25.5073 15.1075 25.5196 15.1375C25.6163 15.2729 25.7131 15.4136 25.7991 15.5489C25.8851 15.6842 26.0303 15.917 26.1325 16.0902C26.1636 16.1454 26.1767 16.2091 26.1699 16.2722C26.1632 16.3353 26.1369 16.3947 26.0948 16.442L25.6432 16.9183L25.4604 17.097C25.4433 17.1131 25.4217 17.1237 25.3986 17.1275C25.3754 17.1313 25.3516 17.128 25.3303 17.1182C25.309 17.1083 25.291 17.0923 25.2788 17.0721C25.2665 17.0519 25.2605 17.0286 25.2615 17.0049L25.2615 16.415C25.2615 16.0144 25.2615 15.6139 25.2615 15.2133M24.0464 7.55967C24.1163 7.63545 24.1916 7.70582 24.2669 7.77618C25.3885 8.90439 26.2735 10.2481 26.869 11.7275C26.8834 11.761 26.8884 11.7977 26.8835 11.8338C26.8787 11.8699 26.8641 11.904 26.8414 11.9324C26.8188 11.9608 26.7888 11.9824 26.7548 11.995C26.7209 12.0075 26.6841 12.0105 26.6486 12.0036C26.2705 11.9384 25.8869 11.9112 25.5034 11.9224C25.3621 11.9247 25.2246 11.8765 25.1153 11.7863C25.006 11.6961 24.9321 11.5697 24.9067 11.4298C24.6999 10.2149 24.3683 9.02496 23.9174 7.87903C23.8905 7.81949 23.8636 7.76536 23.8421 7.70582C23.8315 7.67879 23.8302 7.64896 23.8384 7.6211C23.8466 7.59323 23.8638 7.56893 23.8874 7.5521C23.9109 7.53527 23.9394 7.52686 23.9682 7.52824C23.997 7.52961 24.0246 7.54068 24.0464 7.55967ZM28.5196 13.5137C28.0402 11.2223 26.9546 9.10392 25.3775 7.38272C23.8005 5.66151 21.7906 4.40148 19.5606 3.73593C17.3306 3.07038 14.9634 3.02407 12.7094 3.60189C10.4554 4.17971 8.39844 5.36018 6.75615 7.0184C6.16967 7.6087 5.6404 8.25394 5.17551 8.94534C5.0382 9.12806 4.91593 9.32176 4.80992 9.52451C3.97553 11.0441 3.45217 12.7166 3.27079 14.4433C3.0894 16.1699 3.25366 17.9157 3.75386 19.5773C4.25406 21.239 5.08005 22.7828 6.18301 24.1176C7.28597 25.4524 8.64352 26.5511 10.1754 27.3486C11.7073 28.1462 13.3825 28.6264 15.1019 28.7611C16.8213 28.8957 18.5501 28.682 20.186 28.1325C21.822 27.583 23.332 26.7088 24.6266 25.5618C25.9213 24.4148 26.9745 23.0181 27.7239 21.4542C27.7991 21.2919 27.869 21.1295 27.9282 20.9617C28.5099 19.4497 28.8053 17.8415 28.7991 16.2201C28.8006 15.3234 28.7087 14.429 28.5249 13.5516L28.5249 13.5137"/>
</svg>