<svg width="20" height="21" viewBox="0 0 20 21" fill="none" xmlns="http://www.w3.org/2000/svg">
<circle opacity="0.12" cx="10" cy="11" r="10" fill="#3B82F6"/>
<path d="M11.7552 11.971C11.7552 11 11.1967 10.667 10.0797 10.5283C9.2819 10.4173 9.12233 10.1953 9.12233 9.80686C9.12233 9.41837 9.3883 9.16873 9.92017 9.16873C10.3989 9.16873 10.6648 9.3352 10.7978 9.75139C10.8244 9.83463 10.9042 9.8901 10.984 9.8901L11.4094 9.8901C11.5158 9.8901 11.5956 9.80686 11.5956 9.69592L11.5956 9.66815C11.4892 9.05772 11.0105 8.58607 10.3989 8.5306L10.3989 7.8647C10.3989 7.75369 10.3191 7.67046 10.1861 7.64269L9.78722 7.64269C9.68082 7.64269 9.60103 7.72593 9.57442 7.8647L9.57442 8.50283C8.77658 8.61383 8.27133 9.16873 8.27133 9.8624C8.27133 10.778 8.8032 11.1387 9.92017 11.2774C10.6648 11.4161 10.9042 11.5826 10.9042 12.0266C10.9042 12.4705 10.5318 12.7757 10.0266 12.7757C9.33507 12.7757 9.09572 12.4705 9.01593 12.0543C8.98938 11.9433 8.9096 11.8878 8.82981 11.8878L8.37766 11.8878C8.27133 11.8878 8.19154 11.971 8.19154 12.082L8.19154 12.1098C8.29788 12.8034 8.72341 13.3028 9.60103 13.4416L9.60103 14.1075C9.60103 14.2184 9.68082 14.3017 9.81377 14.3294L10.2127 14.3294C10.3191 14.3294 10.3989 14.2462 10.4255 14.1075L10.4255 13.4416C11.2233 13.3028 11.7552 12.7202 11.7552 11.971Z" fill="#3B82F6"/>
<path d="M8.64363 14.8843C6.56926 14.1075 5.50545 11.6936 6.27674 9.55715C6.67566 8.39182 7.55328 7.50398 8.64363 7.08779C8.75003 7.03232 8.8032 6.94909 8.8032 6.81031L8.8032 6.4219C8.8032 6.31089 8.75003 6.22765 8.64363 6.19995C8.61701 6.19995 8.56385 6.19995 8.53723 6.22765C6.01077 7.06003 4.62784 9.8624 5.42567 12.4982C5.90437 14.052 7.04796 15.2451 8.53723 15.7445C8.64363 15.8 8.75003 15.7445 8.77658 15.6335C8.8032 15.6058 8.8032 15.578 8.8032 15.5225L8.8032 15.1341C8.8032 15.0508 8.72341 14.9399 8.64363 14.8843ZM11.4627 6.22765C11.3563 6.17218 11.2499 6.22765 11.2233 6.33866C11.1967 6.36643 11.1967 6.39413 11.1967 6.44966L11.1967 6.83808C11.1967 6.94909 11.2765 7.06003 11.3563 7.11556C13.4306 7.8924 14.4944 10.3063 13.7232 12.4428C13.3242 13.6081 12.4466 14.4959 11.3563 14.9121C11.2499 14.9676 11.1967 15.0508 11.1967 15.1896L11.1967 15.578C11.1967 15.689 11.2499 15.7722 11.3563 15.8C11.3829 15.8 11.4361 15.8 11.4627 15.7722C13.9891 14.9399 15.3721 12.1375 14.5742 9.50168C14.0955 7.92017 12.9253 6.72708 11.4627 6.22765Z" fill="#3B82F6"/>
</svg>
