<svg width="20" height="20" viewBox="0 0 20 20" fill="currentcolor">
<path fill-rule="evenodd" clip-rule="evenodd" d="M11.4936 11.1224C11.4099 11.1286 10.9777 11.1538 10.0136 11.1538C9.2468 11.1538 8.70236 11.1313 8.51135 11.1224C5.54795 10.9951 3.33602 10.491 3.33602 9.88755C3.33602 9.28407 5.54795 8.78072 8.51135 8.6513V10.6204C8.70515 10.6341 9.26005 10.6661 10.0269 10.6661C10.947 10.6661 11.4078 10.6286 11.4908 10.6211V8.65266C14.4479 8.7814 16.655 9.28543 16.655 9.88755C16.655 10.4897 14.4486 10.9937 11.4908 11.1218L11.4936 11.1224ZM11.4956 8.44913V6.68705H15.6224V4H4.38646V6.68705H8.51264V8.44845C5.15886 8.59898 2.63672 9.2481 2.63672 10.0259C2.63672 10.8038 5.15886 11.4522 8.51264 11.6034V17.25H11.4949V11.6014C14.841 11.4509 17.3589 10.8024 17.3589 10.0253C17.3589 9.2481 14.8431 8.59966 11.4949 8.44845L11.4956 8.44913Z"/>
</svg>
